<svg xmlns="http://www.w3.org/2000/svg" width="59" height="57" viewBox="0 0 59 57">
  <path fill="#000000" fill-rule="evenodd" d="M72.277,34.451 C72.869,32.607 72.383,30.563 70.965,29.169 C69.952,28.175 68.59,27.627 67.181,27.645 C66.946,27.021 66.577,26.455 66.091,25.978 C64.808,24.718 62.972,24.356 61.35,24.849 C61.353,24.761 61.372,24.676 61.372,24.588 C61.372,20.689 58.15,17.517 54.191,17.517 C53.44,17.517 52.705,17.631 51.995,17.858 C50.865,16.683 49.281,16 47.625,16 C45.782,16 44.061,16.832 42.929,18.222 C41.991,17.759 40.961,17.518 39.901,17.518 C36.155,17.518 33.107,20.52 33.107,24.21 L33.107,24.249 C32.058,24.743 31.185,25.495 30.528,26.398 C28.644,25.697 26.493,26.095 25.004,27.497 C23.136,26.911 21.058,27.381 19.642,28.772 C18.63,29.766 18.079,31.11 18.083,32.494 C17.451,32.724 16.877,33.085 16.393,33.56 C15.495,34.441 15,35.615 15,36.866 C15,38.117 15.495,39.291 16.393,40.174 C16.911,40.682 17.526,41.058 18.205,41.283 C18.213,42.727 18.795,44.128 19.847,45.161 C20.892,46.188 22.278,46.75 23.717,46.767 C23.794,47.73 24.214,48.654 24.924,49.351 C25.733,50.145 26.795,50.543 27.859,50.543 C28.261,50.543 28.658,50.468 29.046,50.354 C33.158,50.469 38.755,59.513 39.491,70.068 C39.582,71.37 40.679,72.39 41.987,72.39 L46.987,72.39 C48.263,72.39 49.336,71.432 49.48,70.161 L49.556,69.459 C50.926,56.767 53.78,50.251 58.038,50.056 C58.874,50.507 59.793,50.757 60.721,50.757 C62.151,50.757 63.581,50.222 64.67,49.153 C65.046,48.784 65.362,48.37 65.616,47.916 C66.85,47.909 68.052,47.427 68.936,46.559 C69.913,45.6 70.404,44.283 70.318,42.956 C71.015,42.698 71.649,42.296 72.185,41.77 C73.192,40.781 73.746,39.465 73.746,38.063 C73.745,36.706 73.226,35.429 72.277,34.451 L72.277,34.451 L72.277,34.451 Z M39.104,30.93 C39.224,30.976 39.347,30.999 39.468,30.999 C39.867,30.999 40.245,30.757 40.4,30.362 C40.601,29.848 40.346,29.268 39.833,29.067 C38.343,28.485 37.604,26.798 38.187,25.308 C38.769,23.818 40.455,23.079 41.946,23.662 C42.463,23.86 43.041,23.609 43.242,23.094 C43.443,22.579 43.188,22 42.675,21.799 C40.153,20.816 37.309,22.064 36.324,24.581 C35.339,27.098 36.587,29.947 39.104,30.93 L39.104,30.93 L39.104,30.93 Z M54.287,31.306 C53.807,31.578 53.637,32.188 53.909,32.669 C54.29,33.343 54.386,34.127 54.179,34.873 C53.971,35.62 53.485,36.241 52.81,36.623 C52.135,37.005 51.351,37.099 50.606,36.893 C49.859,36.685 49.238,36.199 48.856,35.524 C48.585,35.043 47.973,34.874 47.494,35.146 C47.014,35.418 46.844,36.028 47.116,36.509 C48.016,38.102 49.68,38.998 51.391,38.998 C52.207,38.998 53.035,38.794 53.794,38.365 C54.934,37.721 55.755,36.672 56.106,35.41 C56.457,34.148 56.294,32.826 55.65,31.686 C55.378,31.204 54.767,31.034 54.287,31.306 L54.287,31.306 L54.287,31.306 Z M45.753,33.111 C46.44,33.443 47.165,33.6 47.881,33.6 C49.702,33.6 51.455,32.581 52.301,30.834 C52.541,30.337 52.333,29.739 51.836,29.498 C51.336,29.257 50.74,29.467 50.5,29.963 C49.803,31.404 48.064,32.006 46.624,31.311 C45.184,30.614 44.579,28.874 45.276,27.435 C45.516,26.938 45.308,26.34 44.811,26.099 C44.312,25.858 43.716,26.068 43.475,26.564 C42.299,28.996 43.32,31.933 45.753,33.111 L45.753,33.111 L45.753,33.111 Z M38.317,38.801 C38.946,39.076 39.612,39.214 40.279,39.214 C40.883,39.214 41.489,39.101 42.068,38.874 C43.288,38.396 44.248,37.473 44.771,36.273 C44.993,35.767 44.761,35.177 44.255,34.956 C43.745,34.735 43.159,34.968 42.939,35.472 C42.628,36.182 42.06,36.729 41.338,37.012 C40.617,37.295 39.829,37.281 39.117,36.969 C37.651,36.328 36.98,34.614 37.62,33.148 C37.842,32.642 37.61,32.052 37.104,31.831 C36.593,31.611 36.008,31.843 35.788,32.347 C34.707,34.822 35.842,37.718 38.317,38.801 L38.317,38.801 L38.317,38.801 Z M50.927,28.279 C51.086,28.294 51.245,28.301 51.404,28.301 C52.539,28.301 53.629,27.911 54.515,27.18 C56.599,25.46 56.896,22.364 55.176,20.28 C54.824,19.855 54.196,19.792 53.768,20.145 C53.342,20.497 53.282,21.127 53.633,21.553 C54.652,22.787 54.476,24.62 53.241,25.638 C52.644,26.131 51.899,26.366 51.117,26.288 C50.346,26.214 49.649,25.844 49.156,25.246 C48.804,24.821 48.176,24.758 47.748,25.111 C47.322,25.463 47.262,26.093 47.613,26.519 C48.446,27.529 49.623,28.154 50.927,28.279 L50.927,28.279 L50.927,28.279 Z M34.475,25.849 C34.925,25.697 35.205,25.249 35.147,24.778 C35.124,24.591 35.108,24.402 35.108,24.208 C35.108,21.621 37.258,19.516 39.902,19.516 C40.893,19.516 41.846,19.813 42.661,20.375 C42.892,20.535 43.182,20.589 43.455,20.526 C43.729,20.463 43.964,20.287 44.101,20.041 C44.808,18.781 46.16,17.998 47.626,17.998 C48.91,17.998 50.128,18.609 50.884,19.633 C51.161,20.009 51.661,20.142 52.088,19.956 C52.758,19.664 53.466,19.516 54.192,19.516 C57.048,19.516 59.373,21.791 59.373,24.587 C59.373,25.272 59.224,25.939 58.945,26.574 C58.944,26.577 58.942,26.578 58.941,26.581 L58.865,26.763 C58.863,26.766 58.862,26.77 58.861,26.773 C58.861,26.773 58.861,26.773 58.861,26.774 L58.859,26.778 C58.841,26.816 58.841,26.856 58.828,26.895 C58.8,26.979 58.767,27.062 58.761,27.148 C58.76,27.169 58.768,27.188 58.768,27.209 C58.768,27.313 58.774,27.418 58.806,27.516 C58.816,27.548 58.84,27.573 58.853,27.604 C58.889,27.687 58.924,27.771 58.981,27.843 C59.06,27.941 59.158,28.025 59.275,28.089 C59.82,28.39 60.145,28.925 60.145,29.521 C60.145,30.12 59.8,30.673 59.247,30.967 C58.999,31.098 58.818,31.327 58.747,31.598 C58.677,31.869 58.723,32.157 58.874,32.392 C59.2,32.898 59.373,33.48 59.373,34.074 C59.373,35.349 58.597,36.496 57.395,36.996 C56.896,37.204 56.653,37.771 56.846,38.277 C56.985,38.64 57.055,39.014 57.055,39.387 C57.055,41.137 55.598,42.561 53.806,42.561 C53.622,42.561 53.44,42.541 53.258,42.509 C53.22,42.503 53.183,42.494 53.146,42.487 C52.968,42.45 52.79,42.402 52.616,42.334 L52.615,42.334 C51.948,42.074 51.373,41.604 51.001,40.979 C50.823,40.682 50.505,40.498 50.159,40.491 C49.787,40.491 49.488,40.658 49.302,40.949 C48.761,41.787 48,42.426 47.122,42.831 C46.993,42.891 46.863,42.948 46.731,42.997 C46.666,43.021 46.598,43.04 46.532,43.061 C46.407,43.101 46.282,43.142 46.154,43.173 C46.067,43.194 45.978,43.206 45.889,43.223 C45.777,43.244 45.666,43.269 45.553,43.282 C45.358,43.305 45.16,43.317 44.96,43.319 C44.811,43.32 44.661,43.309 44.512,43.297 C44.464,43.293 44.415,43.293 44.367,43.288 C44.204,43.27 44.041,43.241 43.879,43.208 C43.848,43.202 43.815,43.198 43.784,43.191 C43.608,43.151 43.434,43.101 43.262,43.043 C43.247,43.038 43.232,43.034 43.217,43.029 C43.031,42.964 42.847,42.89 42.667,42.803 C41.893,42.434 41.21,41.882 40.698,41.175 C40.54,40.957 40.301,40.811 40.034,40.772 C39.985,40.765 39.937,40.761 39.888,40.761 C39.67,40.761 39.456,40.832 39.281,40.967 C39.023,41.164 38.742,41.315 38.452,41.444 C38.445,41.447 38.438,41.446 38.431,41.449 C38.169,41.564 37.905,41.649 37.64,41.708 C37.631,41.71 37.622,41.713 37.613,41.715 C37.346,41.773 37.078,41.803 36.811,41.803 C34.593,41.803 32.79,40.039 32.79,37.87 C32.79,37.04 33.056,36.243 33.559,35.564 C33.722,35.345 33.788,35.069 33.742,34.8 C33.697,34.531 33.543,34.293 33.317,34.14 C32.019,33.261 31.245,31.818 31.245,30.28 C31.245,30.052 31.266,29.828 31.299,29.607 C31.307,29.55 31.32,29.494 31.33,29.438 C31.362,29.27 31.402,29.104 31.452,28.941 C31.47,28.884 31.486,28.827 31.506,28.77 C31.568,28.594 31.64,28.423 31.722,28.256 C31.738,28.223 31.75,28.189 31.768,28.156 C32.319,27.097 33.273,26.255 34.475,25.849 L34.475,25.849 L34.475,25.849 Z M48.746,44.223 C49.256,43.905 49.731,43.531 50.15,43.09 C50.571,43.494 51.066,43.808 51.595,44.053 C51.624,44.089 51.652,44.124 51.691,44.163 C51.856,44.325 52.034,44.472 52.223,44.603 C50.986,46.044 49.88,47.736 48.966,49.376 C49.027,47.453 48.913,45.702 48.746,44.223 L48.746,44.223 L48.746,44.223 Z M42.256,54.746 C40.592,50.92 38.481,48.146 36.828,46.347 C37.146,46.204 37.443,46.011 37.699,45.76 C38.252,45.216 38.559,44.486 38.578,43.731 C38.806,43.607 39.035,43.443 39.264,43.275 C39.406,43.212 39.55,43.153 39.687,43.079 C40.182,43.599 40.753,44.038 41.373,44.387 C42.171,47.501 42.312,51.557 42.256,54.746 L42.256,54.746 L42.256,54.746 Z M30.431,37.309 C30.639,36.797 30.392,36.214 29.88,36.006 C29.37,35.8 28.785,36.044 28.577,36.557 C27.976,38.039 26.283,38.757 24.797,38.155 C23.315,37.553 22.598,35.858 23.199,34.375 C23.406,33.863 23.16,33.28 22.648,33.072 C22.135,32.865 21.552,33.111 21.345,33.623 C20.329,36.128 21.54,38.992 24.044,40.008 C24.646,40.252 25.268,40.367 25.881,40.367 C27.819,40.367 29.658,39.212 30.431,37.309 L30.431,37.309 L30.431,37.309 Z M26.324,47.925 C25.784,47.394 25.577,46.642 25.771,45.913 C25.86,45.576 25.768,45.216 25.527,44.964 C25.336,44.765 25.074,44.656 24.804,44.656 C24.733,44.656 24.66,44.664 24.589,44.679 C23.367,44.947 22.121,44.594 21.246,43.735 C20.432,42.935 20.06,41.79 20.253,40.672 C20.3,40.402 20.233,40.126 20.07,39.906 C19.907,39.687 19.661,39.544 19.389,39.51 C18.776,39.435 18.224,39.171 17.793,38.747 C17.282,38.243 17,37.575 17,36.866 C17,36.157 17.282,35.489 17.795,34.986 C18.204,34.584 18.727,34.324 19.307,34.235 C19.575,34.194 19.814,34.046 19.971,33.825 C20.127,33.604 20.188,33.329 20.137,33.063 C19.942,32.019 20.281,30.948 21.044,30.198 C22.043,29.216 23.571,28.967 24.846,29.578 C25.261,29.777 25.767,29.664 26.059,29.301 C26.141,29.198 26.227,29.097 26.325,29.001 C27.193,28.147 28.444,27.855 29.589,28.184 C29.579,28.213 29.576,28.244 29.567,28.273 C29.491,28.509 29.436,28.752 29.387,28.997 C29.369,29.085 29.343,29.171 29.329,29.26 C29.277,29.594 29.246,29.934 29.246,30.279 C29.246,32.161 30.052,33.94 31.438,35.199 C31.013,36.024 30.792,36.931 30.792,37.868 C30.792,38.07 30.803,38.269 30.823,38.466 C30.83,38.535 30.844,38.602 30.854,38.671 C30.871,38.797 30.887,38.924 30.913,39.048 C30.929,39.127 30.953,39.203 30.972,39.28 C30.999,39.39 31.024,39.502 31.058,39.609 C31.084,39.691 31.116,39.769 31.145,39.849 C31.181,39.949 31.215,40.05 31.256,40.147 C31.291,40.229 31.332,40.306 31.37,40.386 C31.414,40.478 31.456,40.571 31.505,40.66 C31.548,40.739 31.597,40.813 31.643,40.89 C31.695,40.976 31.745,41.062 31.8,41.145 C31.851,41.22 31.906,41.291 31.96,41.363 C32.019,41.442 32.076,41.522 32.139,41.599 C32.197,41.67 32.26,41.736 32.322,41.804 C32.387,41.876 32.451,41.949 32.52,42.018 C32.585,42.083 32.655,42.144 32.723,42.207 C32.794,42.272 32.865,42.339 32.939,42.4 C33.01,42.459 33.085,42.514 33.159,42.57 C33.236,42.628 33.312,42.687 33.392,42.742 C33.469,42.795 33.549,42.843 33.629,42.892 C33.711,42.943 33.793,42.994 33.878,43.041 C33.96,43.086 34.044,43.127 34.128,43.169 C34.216,43.212 34.304,43.256 34.394,43.295 C34.48,43.332 34.568,43.365 34.656,43.398 C34.749,43.433 34.842,43.469 34.937,43.499 C35.027,43.528 35.119,43.553 35.211,43.578 C35.308,43.604 35.404,43.63 35.502,43.652 C35.596,43.673 35.691,43.689 35.787,43.705 C35.887,43.722 35.987,43.738 36.089,43.751 C36.186,43.763 36.284,43.77 36.382,43.777 C36.446,43.781 36.508,43.791 36.572,43.794 C36.544,43.995 36.45,44.182 36.3,44.331 C36.038,44.588 35.649,44.679 35.284,44.571 C35.018,44.493 34.733,44.528 34.496,44.667 C34.258,44.806 34.088,45.038 34.026,45.307 C33.982,45.5 33.911,45.683 33.816,45.853 C33.719,46.027 33.599,46.186 33.455,46.326 C32.839,46.932 31.918,47.115 31.104,46.792 C30.611,46.595 30.049,46.821 29.827,47.303 C29.72,47.536 29.573,47.745 29.393,47.922 C29.181,48.13 28.921,48.292 28.622,48.402 C28.618,48.403 28.616,48.407 28.612,48.408 C27.839,48.689 26.941,48.53 26.324,47.925 L26.324,47.925 L26.324,47.925 Z M47.566,69.245 L47.491,69.936 C47.461,70.195 47.244,70.39 46.985,70.39 L41.985,70.39 C41.722,70.39 41.503,70.187 41.485,69.929 C40.817,60.347 36.188,51.218 31.291,48.904 C31.368,48.916 31.445,48.918 31.522,48.925 C31.592,48.932 31.662,48.941 31.731,48.944 C31.827,48.948 31.922,48.945 32.017,48.943 C32.085,48.941 32.153,48.943 32.22,48.938 C32.315,48.931 32.409,48.916 32.503,48.903 C32.57,48.894 32.637,48.888 32.704,48.875 C32.797,48.857 32.888,48.832 32.98,48.808 C33.046,48.791 33.112,48.778 33.177,48.757 C33.269,48.728 33.358,48.691 33.448,48.656 C33.509,48.632 33.572,48.612 33.632,48.585 C33.73,48.541 33.823,48.489 33.918,48.438 C33.967,48.411 34.018,48.389 34.066,48.361 C34.183,48.292 34.294,48.213 34.405,48.132 C34.427,48.115 34.452,48.102 34.474,48.085 C34.606,47.983 34.733,47.874 34.854,47.755 C34.952,47.659 35.044,47.559 35.131,47.454 C37.087,49.543 40.416,53.846 42.016,60.241 C42.133,60.713 42.576,61.028 43.059,60.996 C43.544,60.96 43.933,60.581 43.981,60.097 C44.019,59.714 44.816,51.433 43.612,45.199 C43.683,45.212 43.756,45.215 43.827,45.226 C43.987,45.251 44.147,45.274 44.31,45.288 C44.419,45.297 44.528,45.3 44.637,45.305 C44.733,45.309 44.827,45.32 44.923,45.32 C44.979,45.32 45.033,45.313 45.088,45.312 C45.201,45.309 45.314,45.303 45.427,45.295 C45.577,45.285 45.727,45.271 45.875,45.251 C45.981,45.237 46.085,45.221 46.19,45.203 C46.352,45.174 46.513,45.14 46.672,45.1 C46.724,45.087 46.778,45.081 46.83,45.066 C47.104,47.972 47.111,51.859 46.023,55.729 C45.877,56.246 46.167,56.786 46.678,56.951 C47.189,57.118 47.739,56.848 47.924,56.345 C47.948,56.28 50.129,50.401 53.291,46.425 C53.301,46.441 53.317,46.454 53.328,46.471 C53.439,46.64 53.565,46.8 53.712,46.946 C53.716,46.95 53.718,46.955 53.722,46.959 C53.855,47.089 54,47.204 54.152,47.306 C54.157,47.309 54.161,47.314 54.166,47.318 C54.243,47.369 54.327,47.403 54.408,47.447 C54.494,47.493 54.576,47.547 54.666,47.584 C54.712,47.603 54.761,47.611 54.807,47.628 C54.938,47.675 55.068,47.722 55.205,47.751 C55.39,47.79 55.578,47.812 55.768,47.816 C55.876,48.021 55.997,48.218 56.13,48.406 C49.554,50.816 48.081,64.47 47.566,69.245 L47.566,69.245 L47.566,69.245 Z M68.255,34.083 C67.749,34.305 67.519,34.895 67.74,35.4 C68.052,36.11 68.067,36.899 67.785,37.62 C67.503,38.342 66.957,38.911 66.247,39.222 C65.537,39.533 64.749,39.549 64.026,39.267 C63.304,38.985 62.735,38.438 62.424,37.728 C62.203,37.223 61.616,36.993 61.107,37.213 C60.601,37.435 60.371,38.024 60.592,38.53 C61.117,39.729 62.078,40.652 63.297,41.129 C63.876,41.355 64.48,41.468 65.083,41.468 C65.751,41.468 66.418,41.329 67.049,41.053 C68.248,40.528 69.171,39.567 69.648,38.347 C70.125,37.127 70.097,35.795 69.572,34.596 C69.351,34.092 68.764,33.863 68.255,34.083 L68.255,34.083 L68.255,34.083 Z M70.783,40.343 C70.301,40.817 69.687,41.128 69.011,41.244 C68.73,41.292 68.483,41.458 68.331,41.701 C68.179,41.944 68.14,42.239 68.221,42.513 C68.494,43.444 68.231,44.447 67.534,45.132 C66.916,45.737 66.024,46.014 65.159,45.882 C64.701,45.809 64.245,46.068 64.073,46.505 C63.892,46.968 63.622,47.378 63.267,47.725 C62.048,48.923 60.165,49.079 58.77,48.196 L58.767,48.193 C58.538,48.047 58.343,47.894 58.17,47.724 C57.791,47.352 57.509,46.908 57.329,46.404 C57.287,46.288 57.223,46.189 57.148,46.099 C57.127,46.074 57.101,46.055 57.078,46.032 C57.019,45.975 56.958,45.925 56.888,45.884 C56.854,45.864 56.82,45.848 56.784,45.833 C56.715,45.803 56.645,45.782 56.57,45.768 C56.53,45.76 56.492,45.752 56.45,45.749 C56.429,45.748 56.408,45.739 56.387,45.739 C56.3,45.739 56.212,45.75 56.125,45.774 L56.12,45.774 C56.078,45.786 56.035,45.786 55.993,45.792 C55.724,45.832 55.459,45.77 55.245,45.618 C55.204,45.588 55.16,45.563 55.123,45.527 C55.053,45.459 54.998,45.38 54.953,45.296 C54.942,45.275 54.936,45.251 54.926,45.229 C54.898,45.164 54.874,45.096 54.861,45.025 C54.834,44.878 54.837,44.724 54.884,44.57 C54.897,44.528 54.907,44.485 54.914,44.442 C55.224,44.376 55.523,44.28 55.81,44.162 C55.892,44.128 55.966,44.081 56.046,44.044 C56.255,43.946 56.46,43.842 56.653,43.719 C56.752,43.656 56.841,43.583 56.935,43.514 C57.096,43.395 57.252,43.273 57.398,43.138 C57.489,43.053 57.573,42.964 57.657,42.873 C57.789,42.732 57.912,42.586 58.027,42.431 C58.102,42.331 58.173,42.23 58.24,42.125 C58.345,41.96 58.437,41.788 58.523,41.611 C58.576,41.502 58.632,41.396 58.677,41.283 C58.757,41.084 58.816,40.878 58.871,40.668 C58.898,40.566 58.934,40.469 58.954,40.364 C59.016,40.046 59.055,39.72 59.055,39.384 C59.055,39.062 59.024,38.742 58.962,38.426 C60.449,37.485 61.372,35.857 61.372,34.072 C61.372,33.411 61.243,32.761 60.995,32.152 C61.538,31.642 61.913,30.982 62.067,30.259 C62.118,30.018 62.145,29.77 62.145,29.518 C62.145,29.277 62.117,29.04 62.07,28.809 C62.055,28.734 62.027,28.665 62.007,28.591 C61.965,28.437 61.921,28.284 61.86,28.137 C61.825,28.054 61.78,27.977 61.739,27.897 C61.673,27.768 61.606,27.641 61.525,27.521 C61.471,27.441 61.41,27.367 61.35,27.291 C61.297,27.224 61.254,27.151 61.196,27.088 C62.264,26.364 63.744,26.471 64.69,27.402 C65.097,27.801 65.359,28.309 65.449,28.87 C65.491,29.136 65.638,29.373 65.858,29.529 C66.077,29.684 66.352,29.744 66.614,29.697 C67.692,29.503 68.795,29.838 69.564,30.594 C70.553,31.566 70.805,33.049 70.193,34.284 C69.98,34.712 70.1,35.23 70.479,35.521 C70.584,35.602 70.687,35.687 70.784,35.782 C71.404,36.392 71.746,37.201 71.746,38.061 C71.745,38.924 71.403,39.733 70.783,40.343 L70.783,40.343 L70.783,40.343 Z" transform="translate(-15 -16)"/>
</svg>
