<svg xmlns="http://www.w3.org/2000/svg" width="53" height="57" viewBox="0 0 53 57">
  <path fill="#000000" fill-rule="evenodd" d="M70.8587601,46.3193477 C70.8587601,44.0023477 69.6087601,41.7793477 67.2337601,39.8593477 C67.3027601,39.4833477 67.3377601,39.1063477 67.3377601,38.7323477 C67.3377601,35.7893477 65.2937601,33.0463477 61.5657601,30.9663477 C61.4777601,28.9293477 60.8627601,22.3753477 56.6687601,18.5533477 C54.3027601,16.3983477 51.2277601,15.4903477 47.5197601,15.8583477 C47.1767601,15.8923477 46.8757601,16.1003477 46.7227601,16.4093477 C46.5697601,16.7193477 46.5867601,17.0853477 46.7667601,17.3783477 C47.3997601,18.4083477 48.5087601,20.8933477 47.8977601,21.9983477 C47.6347601,22.4753477 46.9687601,22.7223477 45.9187601,22.7323477 C43.3387601,22.7583477 40.8197601,23.0813477 38.5577601,23.6443477 C38.2527601,23.2153477 37.9167601,22.8033477 37.5367601,22.4233477 C35.1367601,20.0243477 31.9707601,18.9473477 29.0917601,19.2513477 C28.6547601,18.4213477 28.0117601,17.5373477 27.0597601,16.7873477 C25.0517601,15.2043477 22.2887601,14.6683477 18.8487601,15.1973477 C18.3027601,15.2813477 17.9277601,15.7913477 18.0117601,16.3373477 C18.0947601,16.8843477 18.6117601,17.2593477 19.1517601,17.1743477 C22.0097601,16.7373477 24.2477601,17.1293477 25.8017601,18.3423477 C26.3387601,18.7613477 26.7367601,19.2443477 27.0467601,19.7263477 C26.0077601,20.1083477 25.0497601,20.6963477 24.2377601,21.5083477 L23.3237601,22.4223477 C19.9087601,25.8373477 20.3197601,31.8033477 24.2377601,35.7213477 C24.4767601,35.9603477 24.7267601,36.1813477 24.9857601,36.3903477 C24.6777601,37.1693477 24.5207601,37.9543477 24.5207601,38.7313477 C24.5207601,39.1063477 24.5557601,39.4833477 24.6237601,39.8583477 C22.2497601,41.7783477 20.9987601,44.0013477 20.9987601,46.3183477 C20.9987601,48.0043477 21.6547601,49.6243477 22.9367601,51.1393477 L26.7127601,60.4413477 L26.7607601,60.5433477 C29.9447601,66.3973477 32.6297601,67.8883477 38.4447601,70.1173477 C40.4747601,70.8953477 43.3307601,71.2853477 46.1837601,71.2853477 C49.0377601,71.2853477 51.8887601,70.8953477 53.9047601,70.1163477 C59.7297601,67.8653477 62.4127601,66.3783477 65.5347601,60.6373477 L70.3857601,48.7393477 L70.3837601,48.7373477 C70.6967601,47.9423477 70.8587601,47.1313477 70.8587601,46.3193477 L70.8587601,46.3193477 L70.8587601,46.3193477 L70.8587601,46.3193477 L70.8587601,46.3193477 Z M29.2857601,26.1813477 C30.3687601,26.1813477 31.4527601,25.7693477 32.2787601,24.9443477 C32.6697601,24.5543477 32.6697601,23.9213477 32.2787601,23.5303477 C31.8877601,23.1393477 31.2547601,23.1393477 30.8637601,23.5303477 C29.9937601,24.3993477 28.5767601,24.3993477 27.7067601,23.5303477 C27.3157601,23.1393477 26.6827601,23.1393477 26.2927601,23.5303477 C25.9017601,23.9213477 25.9017601,24.5533477 26.2927601,24.9443477 C27.1177601,25.7693477 28.2017601,26.1813477 29.2857601,26.1813477 L29.2857601,26.1813477 L29.2857601,26.1813477 L29.2857601,26.1813477 L29.2857601,26.1813477 Z M24.7377601,23.8363477 L25.6517601,22.9223477 C26.2837601,22.2903477 27.0387601,21.8493477 27.8577601,21.5633477 C27.9657601,21.9713477 28.0017601,22.2543477 28.0037601,22.2723477 C28.0497601,22.7923477 28.4857601,23.1843477 28.9987601,23.1843477 C29.0267601,23.1843477 29.0547601,23.1833477 29.0827601,23.1803477 C29.6337601,23.1343477 30.0417601,22.6513477 29.9957601,22.1003477 C29.9917601,22.0583477 29.9597601,21.7173477 29.8347601,21.2053477 C29.9077601,21.2033477 29.9777601,21.1863477 30.0507601,21.1863477 C32.1407601,21.1863477 34.3737601,22.0873477 36.1217601,23.8363477 C36.5607601,24.2743477 36.9287601,24.7633477 37.2397601,25.2813477 C37.2417601,25.2843477 37.2407601,25.2883477 37.2427601,25.2913477 C37.8797601,26.3593477 38.2137601,27.5353477 38.2727601,28.7133477 C38.2747601,28.7603477 38.2787601,28.8073477 38.2797601,28.8553477 C38.2907601,29.2213477 38.2767601,29.5873477 38.2337601,29.9503477 C38.2287601,29.9893477 38.2217601,30.0283477 38.2167601,30.0673477 C38.1167601,30.8113477 37.9027601,31.5403477 37.5797601,32.2263477 C37.5607601,32.2673477 37.5417601,32.3083477 37.5217601,32.3483477 C37.3597601,32.6763477 37.1727601,32.9943477 36.9597601,33.2993477 C36.9297601,33.3423477 36.8967601,33.3833477 36.8657601,33.4263477 C36.6417601,33.7333477 36.3977601,34.0303477 36.1227601,34.3063477 C35.8277601,34.6013477 35.5097601,34.8613477 35.1787601,35.0973477 C35.1517601,35.1163477 35.1257601,35.1383477 35.0987601,35.1563477 C34.7647601,35.3863477 34.4157601,35.5873477 34.0547601,35.7573477 C34.0357601,35.7663477 34.0177601,35.7753477 33.9987601,35.7833477 C32.8767601,36.3013477 31.6457601,36.5263477 30.4237601,36.4523477 C30.3947601,36.4503477 30.3667601,36.4503477 30.3377601,36.4483477 C29.9497601,36.4203477 29.5627601,36.3593477 29.1807601,36.2703477 C29.1447601,36.2613477 29.1087601,36.2523477 29.0727601,36.2433477 C28.6897601,36.1473477 28.3107601,36.0233477 27.9427601,35.8633477 C27.9267601,35.8563477 27.9107601,35.8473477 27.8947601,35.8403477 C27.5147601,35.6723477 27.1437601,35.4733477 26.7877601,35.2363477 C26.7847601,35.2343477 26.7807601,35.2343477 26.7787601,35.2323477 C26.3777601,34.9643477 25.9997601,34.6543477 25.6517601,34.3053477 C22.5137601,31.1683477 22.1037601,26.4713477 24.7377601,23.8363477 L24.7377601,23.8363477 L24.7377601,23.8363477 L24.7377601,23.8363477 L24.7377601,23.8363477 Z M46.1767601,35.1443477 C50.5017601,35.1443477 54.6217601,34.5903477 58.0897601,33.5433477 C58.6187601,33.3843477 58.9177601,32.8263477 58.7577601,32.2973477 C58.5977601,31.7693477 58.0387601,31.4713477 57.5107601,31.6293477 C54.2277601,32.6203477 50.3077601,33.1443477 46.1757601,33.1443477 C45.6237601,33.1443477 45.1757601,33.5913477 45.1757601,34.1443477 C45.1757601,34.6973477 45.6247601,35.1443477 46.1767601,35.1443477 L46.1767601,35.1443477 L46.1767601,35.1443477 L46.1767601,35.1443477 L46.1767601,35.1443477 Z M27.8207601,42.6433477 C28.8207601,43.1663477 29.8907601,43.6373477 31.0017601,44.0413477 C31.1147601,44.0823477 31.2307601,44.1023477 31.3437601,44.1023477 C31.7517601,44.1023477 32.1357601,43.8503477 32.2827601,43.4453477 C32.4717601,42.9253477 32.2047601,42.3523477 31.6857601,42.1633477 C30.6577601,41.7883477 29.6687601,41.3533477 28.7467601,40.8723477 C28.2577601,40.6143477 27.6537601,40.8063477 27.3967601,41.2943477 C27.1417601,41.7833477 27.3317601,42.3873477 27.8207601,42.6433477 L27.8207601,42.6433477 L27.8207601,42.6433477 L27.8207601,42.6433477 L27.8207601,42.6433477 Z M39.8467601,46.0793477 C41.8537601,46.3263477 43.8857601,46.4493477 45.9267601,46.4493477 C48.1347601,46.4493477 50.3547601,46.3043477 52.5707601,46.0163477 C53.1187601,45.9463477 53.5047601,45.4443477 53.4337601,44.8963477 C53.3627601,44.3483477 52.8627601,43.9633477 52.3127601,44.0343477 C48.2147601,44.5663477 44.1027601,44.5873477 40.0907601,44.0953477 C39.5507601,44.0273477 39.0437601,44.4173477 38.9757601,44.9653477 C38.9087601,45.5143477 39.2987601,46.0123477 39.8467601,46.0793477 L39.8467601,46.0793477 L39.8467601,46.0793477 L39.8467601,46.0793477 L39.8467601,46.0793477 Z M57.0367601,44.1923477 C57.1587601,44.6373477 57.5607601,44.9293477 58.0007601,44.9293477 C58.0877601,44.9293477 58.1767601,44.9183477 58.2647601,44.8943477 C60.4757601,44.2903477 62.4567601,43.5313477 64.1517601,42.6363477 C64.6397601,42.3773477 64.8267601,41.7733477 64.5687601,41.2843477 C64.3117601,40.7963477 63.7057601,40.6103477 63.2177601,40.8663477 C61.6517601,41.6933477 59.8077601,42.3993477 57.7377601,42.9643477 C57.2057601,43.1103477 56.8917601,43.6593477 57.0367601,44.1923477 L57.0367601,44.1923477 L57.0367601,44.1923477 L57.0367601,44.1923477 L57.0367601,44.1923477 Z M26.3397601,41.0603477 C26.6767601,40.8113477 26.8227601,40.3763477 26.7047601,39.9743477 C26.5827601,39.5603477 26.5207601,39.1423477 26.5207601,38.7323477 C26.5207601,38.3293477 26.5847601,37.9173477 26.7137601,37.5003477 C26.7867601,37.5363477 26.8607601,37.5653477 26.9347601,37.5983477 C27.4657601,37.8453477 28.0187601,38.0403477 28.5887601,38.1833477 C28.6747601,38.2053477 28.7607601,38.2293477 28.8477601,38.2483477 C29.0147601,38.2853477 29.1827601,38.3143477 29.3517601,38.3423477 C29.4517601,38.3583477 29.5517601,38.3733477 29.6527601,38.3863477 C29.8207601,38.4083477 29.9887601,38.4283477 30.1577601,38.4403477 C30.2527601,38.4473477 30.3477601,38.4503477 30.4427601,38.4543477 C30.5907601,38.4613477 30.7377601,38.4763477 30.8877601,38.4763477 C31.3677601,38.4763477 31.8387601,38.4293477 32.3047601,38.3593477 C32.3447601,38.3533477 32.3837601,38.3483477 32.4237601,38.3423477 C32.6417601,38.3063477 32.8567601,38.2633477 33.0697601,38.2123477 C33.0897601,38.2073477 33.1097601,38.2023477 33.1297601,38.1973477 C33.8147601,38.0303477 34.4757601,37.7893477 35.1037601,37.4733477 C35.1167601,37.4673477 35.1287601,37.4613477 35.1417601,37.4553477 C35.3057601,37.3723477 35.4647601,37.2813477 35.6237601,37.1883477 C35.7127601,37.1363477 35.8017601,37.0843477 35.8887601,37.0293477 C36.0167601,36.9483477 36.1427601,36.8653477 36.2677601,36.7783477 C36.3937601,36.6903477 36.5167601,36.5963477 36.6397601,36.5023477 C36.7307601,36.4313477 36.8237601,36.3633477 36.9117601,36.2883477 C37.1267601,36.1093477 37.3357601,35.9223477 37.5367601,35.7213477 C37.8437601,35.4143477 38.1177601,35.0853477 38.3757601,34.7453477 C38.4297601,34.6743477 38.4827601,34.6043477 38.5337601,34.5323477 C39.0327601,33.8363477 39.4297601,33.0813477 39.7187601,32.2833477 C39.7407601,32.2223477 39.7627601,32.1633477 39.7837601,32.1023477 C40.0507601,31.3163477 40.2117601,30.4923477 40.2627601,29.6463477 C40.2677601,29.5563477 40.2727601,29.4673477 40.2757601,29.3773477 C40.2787601,29.2753477 40.2907601,29.1743477 40.2907601,29.0713477 C40.2907601,28.3003477 40.1877601,27.5473477 40.0087601,26.8173477 C40.0017601,26.7903477 39.9957601,26.7633477 39.9887601,26.7353477 C39.8767601,26.2943477 39.7417601,25.8603477 39.5667601,25.4423477 C41.5397601,24.9983477 43.7177601,24.7543477 45.9397601,24.7313477 C47.7657601,24.7113477 49.0137601,24.1173477 49.6497601,22.9613477 C50.5237601,21.3753477 49.8617601,19.2083477 49.2257601,17.7793477 C51.6637601,17.8103477 53.7087601,18.5633477 55.3157601,20.0243477 C59.5627601,23.8873477 59.5807601,31.4883477 59.5807601,31.5643477 C59.5797601,31.9383477 59.7877601,32.2833477 60.1197601,32.4563477 C63.4847601,34.2073477 65.3387601,36.4353477 65.3387601,38.7303477 C65.3387601,39.1393477 65.2767601,39.5573477 65.1547601,39.9723477 C65.0367601,40.3743477 65.1817601,40.8093477 65.5197601,41.0583477 C67.0437601,42.1863477 68.8607601,44.0133477 68.8607601,46.3173477 C68.8607601,46.6823477 68.8137601,47.0503477 68.7187601,47.4193477 C68.6987601,47.4093477 68.6767601,47.4073477 68.6567601,47.3983477 C68.3987601,47.2793477 68.1317601,47.1833477 67.8527601,47.1183477 C67.8187601,47.1103477 67.7837601,47.1063477 67.7497601,47.0993477 C67.4747601,47.0423477 67.1927601,47.0083477 66.8997601,47.0023477 C66.8767601,47.0023477 66.8547601,46.9983477 66.8317601,46.9983477 C66.5347601,46.9963477 66.2277601,47.0273477 65.9147601,47.0773477 C65.8537601,47.0873477 65.7927601,47.0963477 65.7307601,47.1083477 C65.4227601,47.1673477 65.1087601,47.2483477 64.7877601,47.3563477 C64.7287601,47.3763477 64.6697601,47.4003477 64.6107601,47.4213477 C64.2927601,47.5363477 63.9697601,47.6703477 63.6397601,47.8323477 C63.6157601,47.8443477 63.5927601,47.8533477 63.5677601,47.8653477 C63.2257601,48.0363477 62.8777601,48.2403477 62.5267601,48.4613477 C62.4547601,48.5063477 62.3837601,48.5503477 62.3127601,48.5963477 C61.9677601,48.8213477 61.6197601,49.0703477 61.2677601,49.3423477 C61.1997601,49.3943477 61.1327601,49.4503477 61.0647601,49.5043477 C60.6947601,49.7993477 60.3227601,50.1103477 59.9457601,50.4563477 C57.2847601,48.6483477 53.5797601,49.8463477 50.8087601,52.2423477 C48.1287601,50.1863477 44.3577601,50.1883477 41.6797601,52.2443477 C41.4697601,52.0653477 41.2537601,51.8943477 41.0347601,51.7293477 C40.9697601,51.6803477 40.9037601,51.6333477 40.8377601,51.5863477 C40.6737601,51.4673477 40.5077601,51.3533477 40.3397601,51.2433477 C40.2717601,51.1983477 40.2037601,51.1533477 40.1357601,51.1103477 C39.9077601,50.9673477 39.6777601,50.8303477 39.4437601,50.7043477 C39.4417601,50.7033477 39.4407601,50.7023477 39.4387601,50.7013477 C39.2027601,50.5743477 38.9627601,50.4603477 38.7227601,50.3533477 C38.6537601,50.3223477 38.5857601,50.2953477 38.5167601,50.2663477 C38.3357601,50.1903477 38.1537601,50.1203477 37.9717601,50.0553477 C37.9017601,50.0303477 37.8327601,50.0053477 37.7637601,49.9833477 C37.5207601,49.9043477 37.2767601,49.8323477 37.0337601,49.7763477 L37.0327601,49.7763477 C36.7877601,49.7193477 36.5427601,49.6783477 36.2987601,49.6463477 C36.2337601,49.6373477 36.1687601,49.6323477 36.1027601,49.6263477 C35.9187601,49.6073477 35.7347601,49.5963477 35.5527601,49.5923477 C35.5107601,49.5913477 35.4687601,49.5843477 35.4277601,49.5843477 C35.4027601,49.5843477 35.3777601,49.5893477 35.3527601,49.5893477 C34.8737601,49.5953477 34.4047601,49.6573477 33.9507601,49.7803477 C33.8887601,49.7973477 33.8287601,49.8183477 33.7667601,49.8373477 C33.5967601,49.8903477 33.4297601,49.9523477 33.2657601,50.0243477 C33.2037601,50.0513477 33.1427601,50.0763477 33.0817601,50.1063477 C32.8677601,50.2103477 32.6567601,50.3243477 32.4537601,50.4613477 C32.2167601,50.2443477 31.9807601,50.0383477 31.7457601,49.8413477 C31.6697601,49.7783477 31.5957601,49.7203477 31.5207601,49.6593477 C31.3607601,49.5293477 31.2017601,49.4003477 31.0427601,49.2803477 C30.9557601,49.2143477 30.8687601,49.1523477 30.7827601,49.0893477 C30.6377601,48.9833477 30.4927601,48.8783477 30.3477601,48.7793477 C30.2567601,48.7173477 30.1657601,48.6583477 30.0757601,48.5993477 C29.9377601,48.5093477 29.8007601,48.4223477 29.6637601,48.3393477 C29.5717601,48.2843477 29.4797601,48.2303477 29.3887601,48.1783477 C29.2537601,48.1013477 29.1197601,48.0283477 28.9867601,47.9593477 C28.8977601,47.9123477 28.8077601,47.8663477 28.7187601,47.8233477 C28.5837601,47.7573477 28.4507601,47.6983477 28.3177601,47.6403477 C28.2327601,47.6033477 28.1477601,47.5653477 28.0637601,47.5313477 C27.9247601,47.4753477 27.7877601,47.4273477 27.6507601,47.3803477 C27.5757601,47.3543477 27.4997601,47.3253477 27.4257601,47.3023477 C27.2677601,47.2533477 27.1127601,47.2133477 26.9577601,47.1753477 C26.9067601,47.1633477 26.8547601,47.1463477 26.8047601,47.1353477 C26.5997601,47.0913477 26.3987601,47.0563477 26.2007601,47.0333477 C26.1607601,47.0283477 26.1217601,47.0293477 26.0817601,47.0253477 C25.9257601,47.0103477 25.7697601,46.9993477 25.6177601,46.9973477 C25.5467601,46.9983477 25.4807601,47.0033477 25.4137601,47.0053477 C25.2917601,47.0093477 25.1707601,47.0133477 25.0517601,47.0263477 C24.9787601,47.0343477 24.9067601,47.0463477 24.8347601,47.0573477 C24.7247601,47.0743477 24.6157601,47.0933477 24.5097601,47.1173477 C24.4367601,47.1343477 24.3657601,47.1543477 24.2947601,47.1743477 C24.1917601,47.2043477 24.0887601,47.2373477 23.9887601,47.2743477 C23.9207601,47.3003477 23.8527601,47.3283477 23.7857601,47.3573477 C23.6847601,47.4013477 23.5857601,47.4493477 23.4877601,47.5013477 C23.4257601,47.5343477 23.3637601,47.5663477 23.3027601,47.6033477 C23.2707601,47.6223477 23.2367601,47.6373477 23.2047601,47.6573477 C23.0687601,47.2143477 22.9997601,46.7673477 22.9997601,46.3193477 C22.9997601,44.0153477 24.8157601,42.1883477 26.3397601,41.0603477 L26.3397601,41.0603477 L26.3397601,41.0603477 L26.3397601,41.0603477 L26.3397601,41.0603477 Z M34.1817601,56.7603477 C33.9477601,56.2603477 33.3537601,56.0453477 32.8517601,56.2793477 C32.3517601,56.5123477 32.1357601,57.1083477 32.3697601,57.6083477 L35.1337601,63.5123477 C35.3037601,63.8753477 35.6637601,64.0883477 36.0397601,64.0883477 C36.1817601,64.0883477 36.3257601,64.0583477 36.4627601,63.9933477 C36.9627601,63.7603477 37.1787601,63.1643477 36.9447601,62.6643477 L34.1817601,56.7603477 L34.1817601,56.7603477 L34.1817601,56.7603477 L34.1817601,56.7603477 L34.1817601,56.7603477 Z M59.4977601,56.2793477 C58.9987601,56.0443477 58.4017601,56.2593477 58.1677601,56.7603477 L55.4037601,62.6643477 C55.1697601,63.1643477 55.3847601,63.7603477 55.8857601,63.9933477 C56.0227601,64.0573477 56.1667601,64.0883477 56.3087601,64.0883477 C56.6847601,64.0883477 57.0447601,63.8753477 57.2147601,63.5123477 L59.9787601,57.6083477 C60.2127601,57.1083477 59.9977601,56.5123477 59.4977601,56.2793477 L59.4977601,56.2793477 L59.4977601,56.2793477 L59.4977601,56.2793477 L59.4977601,56.2793477 Z M50.9357601,58.2913477 C50.3897601,58.2103477 49.8777601,58.5793477 49.7927601,59.1253477 L48.8717601,65.0293477 C48.7867601,65.5753477 49.1607601,66.0873477 49.7057601,66.1723477 C49.7577601,66.1803477 49.8097601,66.1843477 49.8617601,66.1843477 C50.3457601,66.1843477 50.7717601,65.8313477 50.8487601,65.3383477 L51.7697601,59.4343477 C51.8537601,58.8883477 51.4807601,58.3763477 50.9357601,58.2913477 L50.9357601,58.2913477 L50.9357601,58.2913477 L50.9357601,58.2913477 L50.9357601,58.2913477 Z M41.4137601,58.2913477 C40.8687601,58.3763477 40.4947601,58.8883477 40.5797601,59.4343477 L41.5007601,65.3383477 C41.5777601,65.8313477 42.0037601,66.1843477 42.4877601,66.1843477 C42.5387601,66.1843477 42.5917601,66.1803477 42.6437601,66.1723477 C43.1887601,66.0873477 43.5627601,65.5753477 43.4777601,65.0293477 L42.5567601,59.1253477 C42.4707601,58.5793477 41.9597601,58.2103477 41.4137601,58.2913477 L41.4137601,58.2913477 L41.4137601,58.2913477 L41.4137601,58.2913477 L41.4137601,58.2913477 Z M63.7517601,59.7323477 C60.9357601,64.8923477 58.7317601,66.1083477 53.1847601,68.2523477 C49.6617601,69.6133477 42.7147601,69.6143477 39.1617601,68.2513477 C33.6267601,66.1283477 31.4227601,64.9103477 28.5457601,59.6383477 L24.7377601,50.2573477 C24.7377601,50.2563477 24.7377601,50.2553477 24.7367601,50.2543477 L24.3517601,49.3083477 C26.8207601,47.9143477 30.8647601,51.6863477 31.6987601,52.5073477 L32.4007601,53.1973477 L33.1027601,52.5073477 C35.3157601,50.3283477 39.0137601,52.3863477 40.9597601,54.3023477 L41.6647601,54.9963477 L42.3667601,54.2983477 C44.5037601,52.1713477 47.9837601,52.1713477 50.1227601,54.2983477 L50.8277601,54.9993477 L51.5337601,54.2983477 C53.3107601,52.5293477 56.5677601,50.6443477 58.7747601,52.0923477 C58.9527601,52.2093477 59.1257601,52.3413477 59.2887601,52.5033477 L59.9927601,53.2033477 L60.6977601,52.5063477 C60.6977601,52.5063477 60.6987601,52.5063477 60.6987601,52.5053477 C60.8077601,52.3973477 60.9727601,52.2373477 61.1807601,52.0463477 C61.1997601,52.0283477 61.2227601,52.0083477 61.2427601,51.9903477 C61.3267601,51.9143477 61.4157601,51.8343477 61.5117601,51.7493477 C61.5567601,51.7103477 61.6057601,51.6683477 61.6527601,51.6273477 C61.7327601,51.5583477 61.8127601,51.4893477 61.8997601,51.4173477 C61.9617601,51.3653477 62.0287601,51.3113477 62.0937601,51.2583477 C62.1727601,51.1943477 62.2517601,51.1303477 62.3347601,51.0643477 C62.4117601,51.0033477 62.4917601,50.9423477 62.5727601,50.8823477 C62.6517601,50.8223477 62.7307601,50.7633477 62.8117601,50.7033477 C62.8997601,50.6383477 62.9907601,50.5743477 63.0817601,50.5113477 C63.1617601,50.4553477 63.2427601,50.4003477 63.3247601,50.3453477 C63.4197601,50.2813477 63.5157601,50.2193477 63.6137601,50.1573477 C63.6977601,50.1043477 63.7817601,50.0533477 63.8667601,50.0023477 C63.9657601,49.9423477 64.0667601,49.8843477 64.1677601,49.8283477 C64.2547601,49.7803477 64.3417601,49.7343477 64.4287601,49.6893477 C64.5297601,49.6373477 64.6307601,49.5853477 64.7327601,49.5383477 C64.8237601,49.4953477 64.9147601,49.4573477 65.0067601,49.4193477 C65.1067601,49.3773477 65.2067601,49.3353477 65.3057601,49.2983477 C65.4007601,49.2633477 65.4957601,49.2353477 65.5907601,49.2063477 C65.6867601,49.1763477 65.7817601,49.1453477 65.8777601,49.1223477 C65.9807601,49.0973477 66.0817601,49.0813477 66.1837601,49.0643477 C66.2697601,49.0493477 66.3557601,49.0313477 66.4407601,49.0223477 C66.5597601,49.0103477 66.6747601,49.0123477 66.7917601,49.0133477 C66.8577601,49.0133477 66.9247601,49.0073477 66.9887601,49.0123477 C67.3437601,49.0383477 67.6817601,49.1343477 67.9957601,49.3123477 L63.7517601,59.7323477 L63.7517601,59.7323477 L63.7517601,59.7323477 L63.7517601,59.7323477 L63.7517601,59.7323477 Z" transform="translate(-18 -15)"/>
</svg>
