<svg xmlns="http://www.w3.org/2000/svg" width="55" height="57" viewBox="0 0 55 57">
  <path fill="#000000" fill-rule="evenodd" d="M41.067,41.989 C31.393,41.989 17,43.738 17,48.557 L17,48.692 C17,61.963 27.796,72.759 41.067,72.759 C54.338,72.759 65.135,61.962 65.135,48.692 L65.135,48.557 C65.135,43.738 50.741,41.989 41.067,41.989 L41.067,41.989 L41.067,41.989 L41.067,41.989 L41.067,41.989 L41.067,41.989 L41.067,41.989 L41.067,41.989 L41.067,41.989 L41.067,41.989 Z M41.067,43.989 C42.644,43.989 44.124,44.03 45.536,44.095 C45.05,44.326 44.605,44.668 44.23,45.121 L45.769,46.398 C46.452,45.574 47.547,45.574 48.23,46.398 L49.769,45.121 C49.488,44.782 49.16,44.522 48.813,44.306 C58.238,45.111 63.135,47.278 63.135,48.558 C63.135,50.153 55.556,53.126 41.067,53.126 C32.826,53.126 26.828,52.163 23.181,51.04 C23.84,50.611 24.672,50.724 25.23,51.398 L26.769,50.121 C26.041,49.243 25.058,48.76 23.999,48.76 C22.94,48.76 21.957,49.243 21.229,50.121 L21.723,50.531 C19.93,49.828 18.999,49.111 18.999,48.558 C18.999,46.963 26.578,43.989 41.067,43.989 L41.067,43.989 L41.067,43.989 L41.067,43.989 L41.067,43.989 L41.067,43.989 L41.067,43.989 L41.067,43.989 L41.067,43.989 L41.067,43.989 Z M41.067,70.76 C29.846,70.76 20.56,62.339 19.183,51.486 C23.572,54.107 33.689,55.127 41.067,55.127 C48.446,55.127 58.563,54.107 62.952,51.486 C61.574,62.339 52.288,70.76 41.067,70.76 L41.067,70.76 L41.067,70.76 L41.067,70.76 L41.067,70.76 L41.067,70.76 L41.067,70.76 L41.067,70.76 L41.067,70.76 Z M46.23,51.121 L47.769,52.398 C48.452,51.574 49.547,51.574 50.23,52.398 L51.769,51.121 C51.041,50.243 50.058,49.76 48.999,49.76 C47.94,49.76 46.958,50.243 46.23,51.121 L46.23,51.121 L46.23,51.121 L46.23,51.121 L46.23,51.121 L46.23,51.121 L46.23,51.121 L46.23,51.121 L46.23,51.121 Z M52.23,50.121 L53.769,51.398 C54.452,50.574 55.547,50.574 56.23,51.398 L57.769,50.121 C57.041,49.243 56.058,48.76 54.999,48.76 C53.94,48.76 52.958,49.243 52.23,50.121 L52.23,50.121 L52.23,50.121 L52.23,50.121 L52.23,50.121 L52.23,50.121 L52.23,50.121 L52.23,50.121 L52.23,50.121 Z M60.23,49.398 L61.769,48.121 C61.041,47.243 60.058,46.76 58.999,46.76 C57.94,46.76 56.957,47.243 56.229,48.121 L57.768,49.398 C58.451,48.574 59.547,48.574 60.23,49.398 L60.23,49.398 L60.23,49.398 L60.23,49.398 L60.23,49.398 L60.23,49.398 L60.23,49.398 L60.23,49.398 L60.23,49.398 Z M54.23,48.398 L55.769,47.121 C55.041,46.243 54.058,45.76 52.999,45.76 C51.94,45.76 50.957,46.243 50.229,47.121 L51.768,48.398 C52.451,47.574 53.547,47.574 54.23,48.398 L54.23,48.398 L54.23,48.398 L54.23,48.398 L54.23,48.398 L54.23,48.398 L54.23,48.398 L54.23,48.398 L54.23,48.398 Z M48.23,49.398 L49.769,48.121 C49.041,47.243 48.058,46.76 46.999,46.76 C45.94,46.76 44.957,47.243 44.229,48.121 L45.768,49.398 C46.451,48.574 47.547,48.574 48.23,49.398 L48.23,49.398 L48.23,49.398 L48.23,49.398 L48.23,49.398 L48.23,49.398 L48.23,49.398 L48.23,49.398 L48.23,49.398 Z M42.23,48.398 L43.769,47.121 C43.041,46.243 42.058,45.76 40.999,45.76 C39.94,45.76 38.957,46.243 38.229,47.121 L39.768,48.398 C40.451,47.574 41.547,47.574 42.23,48.398 L42.23,48.398 L42.23,48.398 L42.23,48.398 L42.23,48.398 L42.23,48.398 L42.23,48.398 L42.23,48.398 L42.23,48.398 Z M39.23,51.121 L40.769,52.398 C41.452,51.574 42.547,51.574 43.23,52.398 L44.769,51.121 C44.041,50.243 43.058,49.76 41.999,49.76 C40.94,49.76 39.958,50.243 39.23,51.121 L39.23,51.121 L39.23,51.121 L39.23,51.121 L39.23,51.121 L39.23,51.121 L39.23,51.121 L39.23,51.121 L39.23,51.121 Z M33.23,51.121 L34.769,52.398 C35.452,51.574 36.547,51.574 37.23,52.398 L38.769,51.121 C38.041,50.243 37.058,49.76 35.999,49.76 C34.94,49.76 33.958,50.243 33.23,51.121 L33.23,51.121 L33.23,51.121 L33.23,51.121 L33.23,51.121 L33.23,51.121 L33.23,51.121 L33.23,51.121 L33.23,51.121 Z M29.769,51.398 C30.452,50.574 31.547,50.574 32.23,51.398 L33.769,50.121 C33.041,49.243 32.058,48.76 30.999,48.76 C29.94,48.76 28.957,49.243 28.229,50.121 L29.769,51.398 L29.769,51.398 L29.769,51.398 L29.769,51.398 L29.769,51.398 L29.769,51.398 L29.769,51.398 L29.769,51.398 L29.769,51.398 Z M35.23,48.398 L36.769,47.121 C36.041,46.243 35.058,45.76 33.999,45.76 C32.94,45.76 31.957,46.243 31.229,47.121 L32.768,48.398 C33.451,47.574 34.547,47.574 35.23,48.398 L35.23,48.398 L35.23,48.398 L35.23,48.398 L35.23,48.398 L35.23,48.398 L35.23,48.398 L35.23,48.398 L35.23,48.398 Z M27.23,48.398 L28.769,47.121 C28.041,46.243 27.058,45.76 25.999,45.76 C24.94,45.76 23.957,46.243 23.229,47.121 L24.768,48.398 C25.451,47.574 26.547,47.574 27.23,48.398 L27.23,48.398 L27.23,48.398 L27.23,48.398 L27.23,48.398 L27.23,48.398 L27.23,48.398 L27.23,48.398 L27.23,48.398 Z M47.732,23.715 C47.505,23.156 47.147,22.642 46.638,22.22 C46.411,22.032 46.247,21.813 46.139,21.58 L70.148,17.979 L69.851,16 L46.433,19.513 L45.361,18.22 C44.812,18.674 44.439,19.235 44.22,19.845 L42.296,20.133 C42.391,20.001 42.499,19.873 42.637,19.759 L41.361,18.22 C40.63,18.826 40.192,19.613 40.059,20.469 L38.026,20.774 C38.086,20.4 38.292,20.046 38.637,19.759 L37.361,18.22 C36.483,18.948 35.999,19.931 35.999,20.99 C35.999,21.02 36.008,21.048 36.009,21.077 L34.058,21.369 C34.022,21.245 33.999,21.118 33.999,20.989 C33.999,20.537 34.226,20.1 34.637,19.759 L33.361,18.22 C32.483,18.948 31.999,19.931 31.999,20.99 C31.999,21.22 32.032,21.445 32.077,21.667 L29.851,22 L29.999,22.989 L29.902,23.984 L33.848,24.369 C33.944,24.567 33.999,24.776 33.999,24.989 C33.999,25.441 33.772,25.878 33.361,26.219 C32.483,26.947 31.999,27.93 31.999,28.989 C31.999,30.048 32.482,31.031 33.361,31.759 C33.773,32.101 33.999,32.537 33.999,32.989 C33.999,33.441 33.772,33.878 33.361,34.219 C32.483,34.947 31.999,35.93 31.999,36.989 C31.999,38.048 32.482,39.031 33.361,39.759 L34.637,38.22 C34.225,37.878 33.999,37.442 33.999,36.99 C33.999,36.538 34.226,36.101 34.637,35.76 C35.515,35.032 35.999,34.049 35.999,32.99 C35.999,31.931 35.516,30.948 34.637,30.22 C34.225,29.878 33.999,29.442 33.999,28.99 C33.999,28.538 34.226,28.101 34.637,27.76 C35.515,27.032 35.999,26.049 35.999,24.99 C35.999,24.849 35.968,24.713 35.951,24.575 L37.971,24.772 C37.983,24.844 37.998,24.916 37.998,24.99 C37.998,25.442 37.771,25.879 37.36,26.22 C36.482,26.948 35.998,27.931 35.998,28.99 C35.998,30.049 36.481,31.032 37.36,31.76 C37.772,32.102 37.998,32.538 37.998,32.99 C37.998,33.442 37.771,33.879 37.36,34.22 C36.482,34.948 35.998,35.931 35.998,36.99 C35.998,38.049 36.481,39.032 37.36,39.76 L38.636,38.221 C38.224,37.879 37.998,37.443 37.998,36.991 C37.998,36.539 38.225,36.102 38.636,35.761 C39.514,35.033 39.998,34.05 39.998,32.991 C39.998,31.932 39.515,30.949 38.636,30.221 C38.224,29.879 37.998,29.443 37.998,28.991 C37.998,28.539 38.225,28.102 38.636,27.761 C39.514,27.033 39.998,26.05 39.998,24.991 C39.998,24.984 39.996,24.978 39.996,24.971 L41.977,25.164 C41.927,25.553 41.719,25.924 41.36,26.221 C40.482,26.949 39.998,27.932 39.998,28.991 C39.998,30.05 40.481,31.033 41.36,31.761 C41.772,32.103 41.998,32.539 41.998,32.991 C41.998,33.443 41.771,33.88 41.36,34.221 C40.482,34.949 39.998,35.932 39.998,36.991 C39.998,38.05 40.481,39.033 41.36,39.761 L42.636,38.222 C42.224,37.88 41.998,37.444 41.998,36.992 C41.998,36.54 42.225,36.103 42.636,35.762 C43.514,35.034 43.998,34.051 43.998,32.992 C43.998,31.933 43.515,30.95 42.636,30.222 C42.224,29.88 41.998,29.444 41.998,28.992 C41.998,28.54 42.225,28.103 42.636,27.762 C43.411,27.12 43.856,26.275 43.956,25.359 L45.873,25.546 C45.767,25.793 45.599,26.025 45.36,26.223 C44.482,26.951 43.998,27.934 43.998,28.993 C43.998,30.052 44.481,31.035 45.36,31.763 C45.772,32.105 45.998,32.541 45.998,32.993 C45.998,33.445 45.771,33.882 45.36,34.223 C44.482,34.951 43.998,35.934 43.998,36.993 C43.998,38.052 44.481,39.035 45.36,39.763 L46.636,38.224 C46.224,37.882 45.998,37.446 45.998,36.994 C45.998,36.542 46.225,36.105 46.636,35.764 C47.514,35.036 47.998,34.053 47.998,32.994 C47.998,31.935 47.515,30.952 46.636,30.224 C46.224,29.882 45.998,29.446 45.998,28.994 C45.998,28.542 46.225,28.105 46.636,27.764 C47.302,27.212 47.738,26.514 47.911,25.747 L70.9,27.99 L71.094,26 L47.732,23.715 L47.732,23.715 L47.732,23.715 L47.732,23.715 L47.732,23.715 L47.732,23.715 L47.732,23.715 L47.732,23.715 L47.732,23.715 Z M45.06,23.454 L43.536,23.305 C43.311,22.907 43.019,22.535 42.637,22.219 C42.599,22.188 42.572,22.152 42.537,22.119 L44.129,21.88 C44.288,22.463 44.609,22.994 45.06,23.454 L45.06,23.454 L45.06,23.454 L45.06,23.454 L45.06,23.454 L45.06,23.454 L45.06,23.454 L45.06,23.454 L45.06,23.454 Z M39.055,22.643 L40.334,22.451 C40.43,22.653 40.553,22.843 40.688,23.028 L39.271,22.89 C39.206,22.803 39.129,22.724 39.055,22.643 L39.055,22.643 L39.055,22.643 L39.055,22.643 L39.055,22.643 L39.055,22.643 L39.055,22.643 L39.055,22.643 L39.055,22.643 Z" transform="translate(-17 -16)"/>
</svg>
