<svg xmlns="http://www.w3.org/2000/svg" width="59" height="60" viewBox="0 0 59 60">
  <path fill="#000000" fill-rule="evenodd" d="M69.108,58.505 L69.514,57.398 C69.857,56.462 69.961,55.303 69.843,53.749 C69.812,53.337 69.763,52.941 69.716,52.561 C69.544,51.175 69.475,50.35 70.066,49.486 C70.255,49.209 70.651,48.737 71.07,48.238 C72.762,46.223 73.959,44.703 73.959,43.48 C73.959,42.256 72.76,40.734 71.066,38.717 C70.648,38.22 70.253,37.75 70.065,37.474 C69.475,36.611 69.544,35.785 69.716,34.4 C69.763,34.018 69.812,33.624 69.843,33.212 C70.181,28.771 68.828,28.012 66.559,27.291 C65.451,26.938 64.194,26.539 62.807,25.152 C61.421,23.765 61.021,22.509 60.669,21.401 C59.948,19.131 59.189,17.786 54.748,18.117 C54.336,18.148 53.942,18.197 53.561,18.245 C52.176,18.416 51.349,18.485 50.485,17.896 C50.21,17.708 49.741,17.314 49.245,16.897 C47.227,15.2 45.704,14 44.479,14 C43.254,14 41.731,15.2 39.713,16.896 C39.217,17.313 38.748,17.707 38.473,17.895 C37.61,18.483 36.784,18.414 35.398,18.244 C35.017,18.196 34.622,18.147 34.21,18.116 C29.774,17.776 29.011,19.13 28.29,21.399 C27.937,22.507 27.538,23.764 26.151,25.152 C24.764,26.538 23.508,26.937 22.4,27.29 C20.13,28.01 18.777,28.769 19.115,33.21 C19.147,33.622 19.196,34.017 19.243,34.398 C19.416,35.784 19.485,36.61 18.895,37.472 C18.707,37.747 18.314,38.215 17.897,38.71 C16.201,40.73 15,42.253 15,43.479 C15,44.703 16.199,46.224 17.891,48.24 C18.309,48.738 18.705,49.209 18.894,49.486 C19.484,50.349 19.415,51.175 19.243,52.561 C19.196,52.943 19.147,53.337 19.115,53.749 C18.777,58.189 20.131,58.948 22.4,59.669 C23.508,60.022 24.765,60.42 26.151,61.807 C27.537,63.194 27.937,64.451 28.29,65.559 C29.011,67.829 29.769,69.175 34.21,68.843 C34.623,68.812 35.018,68.763 35.4,68.715 C36.784,68.541 37.61,68.473 38.473,69.064 C38.749,69.253 39.219,69.648 39.717,70.065 C41.734,71.759 43.256,72.958 44.479,72.959 C45.703,72.959 47.224,71.761 49.24,70.067 C49.739,69.649 50.209,69.254 50.486,69.064 C51.353,68.471 52.182,68.542 53.571,68.714 C53.903,68.756 54.245,68.798 54.599,68.829 L56.188,68.969 L47.568,46.297 L69.108,58.505 L69.108,58.505 L69.108,58.505 L69.108,58.505 L69.108,58.505 L69.108,58.505 L69.108,58.505 L69.108,58.505 L69.108,58.505 L69.108,58.505 Z M49.357,67.412 C48.999,67.657 48.514,68.064 47.953,68.535 C47.1,69.251 45.103,70.928 44.481,70.958 C43.853,70.928 41.855,69.25 41.002,68.533 C40.442,68.063 39.959,67.657 39.602,67.413 C38.662,66.769 37.739,66.591 36.833,66.591 C36.266,66.591 35.706,66.661 35.152,66.731 C34.801,66.774 34.437,66.82 34.057,66.849 C30.875,67.09 30.717,66.596 30.195,64.953 C29.816,63.759 29.296,62.124 27.565,60.392 C25.834,58.662 24.199,58.142 23.005,57.762 C21.363,57.241 20.867,57.082 21.109,53.901 C21.138,53.522 21.184,53.159 21.227,52.808 C21.406,51.371 21.591,49.886 20.545,48.356 C20.3,47.998 19.893,47.513 19.422,46.953 C18.706,46.1 17.029,44.103 16.999,43.481 C17.029,42.851 18.71,40.85 19.428,39.997 C19.896,39.439 20.301,38.958 20.545,38.601 C21.59,37.071 21.405,35.585 21.226,34.15 C21.183,33.799 21.137,33.436 21.108,33.057 C20.866,29.873 21.362,29.716 23.004,29.195 C24.198,28.815 25.833,28.296 27.564,26.565 C29.295,24.834 29.815,23.198 30.195,22.003 C30.716,20.361 30.874,19.864 34.056,20.108 C34.435,20.137 34.799,20.182 35.149,20.226 C36.586,20.405 38.07,20.59 39.6,19.543 C39.957,19.299 40.439,18.894 40.997,18.425 C41.853,17.71 43.853,16.03 44.477,16 C45.106,16.03 47.105,17.71 47.958,18.427 C48.517,18.896 48.999,19.301 49.356,19.546 C50.886,20.591 52.371,20.404 53.808,20.228 C54.158,20.184 54.521,20.139 54.9,20.11 C58.083,19.871 58.241,20.364 58.762,22.006 C59.141,23.2 59.661,24.835 61.392,26.566 C63.123,28.297 64.758,28.817 65.952,29.196 C67.595,29.718 68.09,29.876 67.848,33.059 C67.819,33.439 67.774,33.802 67.73,34.153 C67.552,35.589 67.367,37.073 68.413,38.603 C68.658,38.96 69.064,39.444 69.534,40.003 C70.25,40.857 71.928,42.854 71.958,43.477 C71.928,44.105 70.252,46.099 69.537,46.952 C69.065,47.514 68.658,48 68.412,48.358 C67.367,49.888 67.551,51.372 67.729,52.807 C67.773,53.159 67.818,53.522 67.847,53.902 C67.893,54.512 67.901,55.045 67.867,55.506 L64.401,53.542 C64.469,53.47 64.537,53.398 64.582,53.305 C66.042,50.298 66.783,47.068 66.783,43.701 C66.783,31.567 56.911,21.695 44.778,21.695 C32.644,21.695 22.772,31.567 22.772,43.701 C22.772,55.835 32.644,65.707 44.778,65.707 C47.368,65.707 49.887,65.238 52.294,64.362 L53.166,66.655 C51.932,66.521 50.66,66.521 49.357,67.412 L49.357,67.412 L49.357,67.412 L49.357,67.412 L49.357,67.412 L49.357,67.412 L49.357,67.412 L49.357,67.412 L49.357,67.412 L49.357,67.412 Z M51.586,62.491 C49.406,63.281 47.125,63.704 44.78,63.704 C33.749,63.704 24.774,54.729 24.774,43.698 C24.774,32.667 33.749,23.692 44.78,23.692 C55.811,23.692 64.785,32.667 64.785,43.698 C64.785,46.76 64.112,49.697 62.785,52.427 C62.758,52.482 62.757,52.54 62.741,52.597 L43.727,41.82 L51.586,62.491 L51.586,62.491 L51.586,62.491 L51.586,62.491 L51.586,62.491 L51.586,62.491 L51.586,62.491 L51.586,62.491 L51.586,62.491 Z M45.22,36.828 C45.476,36.828 45.732,36.73 45.927,36.535 C48.652,33.809 48.653,29.375 45.927,26.648 C45.536,26.257 44.904,26.257 44.513,26.648 C43.192,27.969 42.464,29.725 42.464,31.591 C42.464,33.458 43.192,35.213 44.513,36.534 C44.708,36.73 44.964,36.828 45.22,36.828 L45.22,36.828 L45.22,36.828 L45.22,36.828 L45.22,36.828 L45.22,36.828 L45.22,36.828 L45.22,36.828 L45.22,36.828 Z M45.22,28.975 C46.207,30.576 46.207,32.608 45.22,34.208 C44.736,33.427 44.464,32.532 44.464,31.591 C44.464,30.651 44.735,29.756 45.22,28.975 L45.22,28.975 L45.22,28.975 L45.22,28.975 L45.22,28.975 L45.22,28.975 L45.22,28.975 L45.22,28.975 L45.22,28.975 Z M44.513,61.245 C44.708,61.44 44.964,61.538 45.22,61.538 C45.476,61.538 45.732,61.44 45.927,61.245 C48.653,58.519 48.653,54.086 45.927,51.36 C45.536,50.969 44.904,50.969 44.513,51.36 C43.192,52.681 42.464,54.436 42.464,56.302 C42.464,58.168 43.191,59.924 44.513,61.245 L44.513,61.245 L44.513,61.245 L44.513,61.245 L44.513,61.245 L44.513,61.245 L44.513,61.245 L44.513,61.245 L44.513,61.245 Z M45.22,53.687 C46.207,55.287 46.207,57.319 45.22,58.918 C44.736,58.138 44.464,57.243 44.464,56.302 C44.464,55.361 44.735,54.467 45.22,53.687 L45.22,53.687 L45.22,53.687 L45.22,53.687 L45.22,53.687 L45.22,53.687 L45.22,53.687 L45.22,53.687 L45.22,53.687 Z M52.632,43.239 C52.241,43.63 52.241,44.262 52.632,44.653 C53.953,45.974 55.708,46.703 57.575,46.703 C59.441,46.703 61.197,45.974 62.518,44.653 C62.909,44.262 62.909,43.63 62.518,43.239 C59.792,40.515 55.357,40.515 52.632,43.239 L52.632,43.239 L52.632,43.239 L52.632,43.239 L52.632,43.239 L52.632,43.239 L52.632,43.239 L52.632,43.239 L52.632,43.239 Z M54.959,43.947 C56.559,42.96 58.591,42.959 60.192,43.947 C59.411,44.432 58.516,44.704 57.575,44.704 C56.635,44.703 55.74,44.431 54.959,43.947 L54.959,43.947 L54.959,43.947 L54.959,43.947 L54.959,43.947 L54.959,43.947 L54.959,43.947 L54.959,43.947 L54.959,43.947 Z M37.808,44.653 C38.199,44.262 38.199,43.63 37.808,43.239 C35.082,40.514 30.648,40.515 27.923,43.239 C27.532,43.63 27.532,44.262 27.923,44.653 C29.244,45.974 30.999,46.703 32.865,46.703 C34.731,46.703 36.487,45.975 37.808,44.653 L37.808,44.653 L37.808,44.653 L37.808,44.653 L37.808,44.653 L37.808,44.653 L37.808,44.653 L37.808,44.653 L37.808,44.653 Z M35.482,43.946 C34.701,44.431 33.806,44.703 32.865,44.703 C31.925,44.703 31.03,44.431 30.249,43.947 C31.849,42.959 33.881,42.959 35.482,43.946 L35.482,43.946 L35.482,43.946 L35.482,43.946 L35.482,43.946 L35.482,43.946 L35.482,43.946 L35.482,43.946 L35.482,43.946 Z M50.961,39.205 C54.815,39.204 57.951,36.068 57.951,32.215 C57.951,31.662 57.503,31.215 56.951,31.215 C53.097,31.215 49.961,34.351 49.961,38.205 C49.961,38.758 50.409,39.205 50.961,39.205 L50.961,39.205 L50.961,39.205 L50.961,39.205 L50.961,39.205 L50.961,39.205 L50.961,39.205 L50.961,39.205 L50.961,39.205 Z M55.806,33.36 C55.373,35.189 53.936,36.625 52.107,37.059 C52.54,35.23 53.977,33.793 55.806,33.36 L55.806,33.36 L55.806,33.36 L55.806,33.36 L55.806,33.36 L55.806,33.36 L55.806,33.36 L55.806,33.36 L55.806,33.36 Z M39.479,48.369 L39.477,48.369 C37.61,48.369 35.854,49.255 34.536,50.575 C33.216,51.894 32.489,53.81 32.49,55.678 C32.49,56.231 32.938,56.678 33.49,56.678 C37.344,56.678 40.48,53.542 40.48,49.689 C40.48,49.632 40.457,49.584 40.448,49.529 C40.457,49.475 40.48,49.426 40.48,49.369 C40.479,48.817 40.031,48.369 39.479,48.369 L39.479,48.369 L39.479,48.369 L39.479,48.369 L39.479,48.369 L39.479,48.369 L39.479,48.369 L39.479,48.369 L39.479,48.369 Z M34.603,54.542 C34.801,53.584 35.258,52.68 35.95,51.989 C36.631,51.308 37.476,50.769 38.395,50.521 C38.057,52.508 36.551,54.094 34.603,54.542 L34.603,54.542 L34.603,54.542 L34.603,54.542 L34.603,54.542 L34.603,54.542 L34.603,54.542 L34.603,54.542 L34.603,54.542 Z M38.433,33.262 C37.114,31.942 35.358,31.215 33.49,31.215 C32.938,31.215 32.49,31.662 32.49,32.215 C32.49,32.215 32.494,32.228 32.494,32.236 C32.494,32.236 32.49,32.249 32.49,32.257 C32.49,34.125 33.217,35.922 34.536,37.243 C35.855,38.561 37.61,39.37 39.477,39.37 L39.479,39.37 C40.031,39.37 40.479,38.922 40.479,38.37 C40.479,38.341 40.465,38.316 40.462,38.287 C40.464,38.258 40.479,38.234 40.479,38.204 C40.48,36.336 39.752,34.581 38.433,33.262 L38.433,33.262 L38.433,33.262 L38.433,33.262 L38.433,33.262 L38.433,33.262 L38.433,33.262 L38.433,33.262 L38.433,33.262 Z M34.626,33.357 C35.524,33.565 36.352,34.008 37.019,34.675 C37.726,35.382 38.194,36.263 38.384,37.223 C37.47,36.997 36.628,36.508 35.95,35.831 C35.277,35.16 34.832,34.286 34.626,33.357 L34.626,33.357 L34.626,33.357 L34.626,33.357 L34.626,33.357 L34.626,33.357 L34.626,33.357 L34.626,33.357 L34.626,33.357 Z M60.978,73.185 L61.815,72.934 C62.086,72.853 68.508,70.853 71.473,63.289 L71.779,62.509 L50.122,49.25 L60.978,73.185 L60.978,73.185 L60.978,73.185 L60.978,73.185 L60.978,73.185 L60.978,73.185 L60.978,73.185 L60.978,73.185 L60.978,73.185 Z M54.635,54.357 L65.147,60.793 C65.146,60.807 65.139,60.819 65.139,60.833 C65.139,63.923 62.983,66.463 60.246,66.727 L54.635,54.357 L54.635,54.357 L54.635,54.357 L54.635,54.357 L54.635,54.357 L54.635,54.357 L54.635,54.357 L54.635,54.357 L54.635,54.357 Z M62.045,70.695 L61.103,68.618 C64.191,68.01 66.606,65.326 67.055,61.962 L69.286,63.328 C67.208,67.914 63.636,69.973 62.045,70.695 L62.045,70.695 L62.045,70.695 L62.045,70.695 L62.045,70.695 L62.045,70.695 L62.045,70.695 L62.045,70.695 L62.045,70.695 Z" transform="translate(-15 -14)"/>
</svg>
