<svg xmlns="http://www.w3.org/2000/svg" width="60" height="52" viewBox="0 0 60 52">
  <path fill="#000000" fill-rule="evenodd" d="M72.5654954,42.752 C72.1184954,42.274 71.4884954,42 70.8364954,42 L70.6424954,42 C71.5214954,40.487 71.9994954,38.769 71.9994954,37 C71.9994954,33.011 69.6134954,29.42 65.9914954,27.842 C65.9064954,22.402 61.4604954,18 56.0004954,18 C50.5414954,18 46.0964954,22.399 46.0084954,27.837 C45.8044954,27.789 45.5944954,27.761 45.3804954,27.761 C44.4914954,27.761 43.6544954,28.195 43.1434954,28.921 L42.8944954,29.275 C42.6894954,29.565 42.3044954,29.67 41.9824954,29.52 L41.5904954,29.338 C40.7834954,28.962 39.8424954,29.006 39.0714954,29.45 C38.3004954,29.894 37.7934954,30.689 37.7134954,31.574 L37.6744954,32.005 C37.6604954,32.159 37.5924954,32.374 37.5034954,32.604 C37.2744954,32.495 37.1104954,32.271 37.0864954,32.004 L37.0474954,31.575 C36.9714954,30.735 36.5224954,30.039 35.8794954,29.598 L39.0264954,25.132 C39.6394954,24.261 39.8774954,23.2 39.6934954,22.146 C39.5104954,21.09 38.9304954,20.171 38.0604954,19.558 C36.2564954,18.288 33.7564954,18.72 32.4864954,20.524 L26.7264954,28.699 C26.5344954,28.972 26.3924954,29.268 26.2754954,29.572 C26.1824954,29.576 26.0834954,29.567 25.9814954,29.52 L25.5894954,29.338 C24.7824954,28.964 23.8394954,29.007 23.0704954,29.451 C22.3004954,29.895 21.7934954,30.689 21.7134954,31.574 L21.6744954,32.005 C21.6424954,32.36 21.3614954,32.641 21.0064954,32.673 L20.5764954,32.712 C19.6914954,32.792 18.8964954,33.3 18.4524954,34.069 C18.0074954,34.84 17.9654954,35.781 18.3394954,36.59 L18.5204954,36.98 C18.6704954,37.304 18.5674954,37.688 18.2754954,37.893 L17.9224954,38.142 C17.1954954,38.655 16.7614954,39.492 16.7614954,40.381 C16.7614954,40.974 16.9694954,41.534 17.3134954,41.999 L16.3734954,41.999 C15.7214954,41.999 15.0914954,42.273 14.6444954,42.751 C14.1934954,43.233 13.9604954,43.889 14.0054954,44.548 C14.5974954,53.295 20.1614954,57.687 28.3344954,61.59 C29.2464954,62.026 29.9994954,62.75 30.4564954,63.632 C30.9024954,64.494 30.8314954,65.606 30.2624954,66.552 C29.8334954,67.264 29.8214954,68.121 30.2304954,68.845 C30.6394954,69.569 31.3794954,70 32.2104954,70 L55.0004954,70 C55.8314954,70 56.5714954,69.568 56.9804954,68.845 C57.3894954,68.121 57.3774954,67.264 56.9384954,66.534 C56.3794954,65.605 56.3094954,64.494 56.7544954,63.633 C57.2104954,62.751 57.9634954,62.026 58.8764954,61.59 C67.0474954,57.687 72.6124954,53.296 73.2054954,44.549 C73.2494954,43.889 73.0154954,43.234 72.5654954,42.752 L72.5654954,42.752 L72.5654954,42.752 L72.5654954,42.752 L72.5654954,42.752 L72.5654954,42.752 L72.5654954,42.752 L72.5654954,42.752 L72.5654954,42.752 L72.5654954,42.752 L72.5654954,42.752 Z M70.0004954,37 C70.0004954,38.82 69.3754954,40.579 68.2324954,42 L63.0004954,42 L63.0004954,38 C63.0004954,37.447 62.5534954,37 62.0004954,37 C61.4474954,37 61.0004954,37.447 61.0004954,38 L61.0004954,42 L57.4694954,42 C57.5504954,41.89 57.6204954,41.774 57.6834954,41.654 C57.6864954,41.649 57.6904954,41.644 57.6934954,41.639 C57.7814954,41.469 57.8444954,41.287 57.8954954,41.102 C57.9084954,41.056 57.9194954,41.01 57.9294954,40.962 C57.9704954,40.772 57.9994954,40.579 57.9994954,40.381 C57.9994954,39.491 57.5654954,38.655 56.8394954,38.145 L56.6094954,37.982 C56.6894954,37.977 56.7664954,37.964 56.8454954,37.958 C56.9654954,37.948 57.0854954,37.936 57.2044954,37.921 C57.4014954,37.897 57.5964954,37.867 57.7894954,37.832 C57.9034954,37.811 58.0184954,37.792 58.1314954,37.767 C58.3394954,37.722 58.5444954,37.666 58.7474954,37.608 C58.8384954,37.582 58.9304954,37.561 59.0204954,37.532 C59.3054954,37.441 59.5844954,37.34 59.8574954,37.225 C59.9334954,37.193 60.0054954,37.155 60.0794954,37.121 C60.2774954,37.032 60.4744954,36.94 60.6654954,36.838 C60.7724954,36.781 60.8764954,36.719 60.9804954,36.658 C61.1334954,36.569 61.2854954,36.479 61.4334954,36.382 C61.5434954,36.31 61.6514954,36.236 61.7584954,36.16 C61.8934954,36.064 62.0264954,35.964 62.1564954,35.862 C62.2634954,35.778 62.3694954,35.695 62.4724954,35.607 C62.5954954,35.502 62.7124954,35.392 62.8304954,35.282 C62.9314954,35.188 63.0334954,35.095 63.1304954,34.997 C63.2414954,34.884 63.3444954,34.764 63.4494954,34.646 C63.6484954,34.423 63.8364954,34.192 64.0154954,33.951 C64.0784954,33.866 64.1454954,33.784 64.2064954,33.696 C64.3154954,33.539 64.4154954,33.376 64.5154954,33.214 C64.5654954,33.132 64.6174954,33.051 64.6654954,32.967 C64.7664954,32.792 64.8594954,32.613 64.9494954,32.432 C64.9844954,32.36 65.0194954,32.289 65.0534954,32.216 C65.1464954,32.017 65.2334954,31.816 65.3134954,31.61 C65.3304954,31.566 65.3464954,31.52 65.3624954,31.476 C65.5434954,30.989 65.6974954,30.489 65.8014954,29.971 C68.3554954,31.352 70.0004954,34.039 70.0004954,37 L70.0004954,37 L70.0004954,37 L70.0004954,37 L70.0004954,37 L70.0004954,37 L70.0004954,37 L70.0004954,37 L70.0004954,37 L70.0004954,37 L70.0004954,37 Z M56.0004954,20 C60.4114954,20 64.0004954,23.589 64.0004954,28 C64.0004954,28.151 63.9874954,28.299 63.9784954,28.448 C63.9784954,28.448 63.9754954,28.454 63.9754954,28.458 C63.9164954,29.509 63.6544954,30.502 63.2304954,31.403 C63.2264954,31.412 63.2224954,31.421 63.2184954,31.43 C63.1204954,31.637 63.0124954,31.837 62.8974954,32.034 C62.8834954,32.058 62.8704954,32.082 62.8564954,32.106 C62.7494954,32.285 62.6334954,32.459 62.5124954,32.628 C62.4864954,32.665 62.4614954,32.702 62.4354954,32.738 C62.3224954,32.892 62.2014954,33.04 62.0774954,33.185 C62.0384954,33.231 62.0004954,33.278 61.9604954,33.323 C61.8434954,33.455 61.7194954,33.58 61.5934954,33.704 C61.5414954,33.756 61.4904954,33.808 61.4364954,33.859 C61.3164954,33.971 61.1904954,34.076 61.0634954,34.181 C60.9984954,34.235 60.9344954,34.29 60.8674954,34.341 C60.7444954,34.435 60.6174954,34.523 60.4894954,34.611 C60.4124954,34.664 60.3364954,34.718 60.2564954,34.768 C60.1314954,34.847 60.0024954,34.918 59.8734954,34.99 C59.7854954,35.039 59.6974954,35.09 59.6074954,35.136 C59.4814954,35.2 59.3514954,35.257 59.2224954,35.314 C59.1234954,35.358 59.0254954,35.404 58.9244954,35.443 C58.7974954,35.493 58.6674954,35.536 58.5374954,35.579 C58.4284954,35.616 58.3214954,35.654 58.2104954,35.686 C58.0844954,35.723 57.9544954,35.751 57.8254954,35.781 C57.7064954,35.809 57.5884954,35.839 57.4674954,35.862 C57.3424954,35.885 57.2154954,35.9 57.0894954,35.918 C56.9604954,35.936 56.8324954,35.955 56.7024954,35.967 C56.6774954,35.969 56.6514954,35.969 56.6254954,35.971 L56.6254954,35.97 C56.6274954,35.957 56.6274954,35.945 56.6294954,35.932 C56.6624954,35.751 56.6734954,35.568 56.6694954,35.385 C56.6684954,35.326 56.6614954,35.269 56.6564954,35.21 C56.6444954,35.066 56.6204954,34.925 56.5864954,34.785 C56.5724954,34.729 56.5614954,34.673 56.5434954,34.618 C56.4844954,34.43 56.4114954,34.245 56.3104954,34.071 C55.8654954,33.301 55.0714954,32.794 54.1864954,32.714 L53.7554954,32.675 C53.4904954,32.651 53.2664954,32.488 53.1564954,32.258 L55.2934954,30.122 C55.6844954,29.731 55.6844954,29.099 55.2934954,28.708 C54.9024954,28.317 54.2704954,28.317 53.8794954,28.708 L52.4524954,30.135 C52.2414954,29.868 51.9934954,29.628 51.6914954,29.453 C51.4894954,29.336 51.2744954,29.251 51.0544954,29.19 C50.9804954,29.169 50.9054954,29.167 50.8304954,29.153 C50.6804954,29.124 50.5324954,29.097 50.3804954,29.094 C50.3614954,29.094 50.3424954,29.086 50.3234954,29.086 C50.2084954,29.086 50.0954954,29.108 49.9814954,29.123 C49.9104954,29.132 49.8394954,29.132 49.7694954,29.146 C49.5654954,29.188 49.3654954,29.25 49.1724954,29.339 L48.7824954,29.52 C48.6824954,29.566 48.5764954,29.584 48.4694954,29.58 C48.4634954,29.58 48.4584954,29.579 48.4524954,29.579 C48.3474954,29.572 48.2424954,29.543 48.1464954,29.49 C48.0494954,28.984 48.0004954,28.484 48.0004954,28 C48.0004954,23.589 51.5884954,20 56.0004954,20 L56.0004954,20 L56.0004954,20 L56.0004954,20 L56.0004954,20 L56.0004954,20 L56.0004954,20 L56.0004954,20 L56.0004954,20 L56.0004954,20 L56.0004954,20 Z M39.6664954,32.186 L39.7054954,31.755 C39.7264954,31.513 39.8604954,31.304 40.0714954,31.183 C40.2814954,31.062 40.5294954,31.049 40.7494954,31.153 L41.1434954,31.336 C42.3424954,31.89 43.7684954,31.507 44.5294954,30.428 L44.7784954,30.074 C45.0594954,29.675 45.7054954,29.678 45.9844954,30.073 L46.2334954,30.427 C46.7434954,31.15 47.5514954,31.551 48.3904954,31.576 L48.4194954,31.576 C48.5404954,31.578 48.6624954,31.576 48.7834954,31.562 C48.8404954,31.556 48.8964954,31.543 48.9534954,31.533 C49.0354954,31.518 49.1164954,31.507 49.1974954,31.485 C49.3414954,31.446 49.4834954,31.397 49.6214954,31.333 L50.0124954,31.151 C50.2334954,31.049 50.4814954,31.06 50.6904954,31.181 C50.9004954,31.303 51.0344954,31.511 51.0554954,31.754 L51.0944954,32.183 C51.2144954,33.501 52.2574954,34.545 53.5744954,34.663 L54.0044954,34.702 C54.2474954,34.723 54.4564954,34.857 54.5774954,35.068 C54.6994954,35.278 54.7104954,35.526 54.6084954,35.745 L54.4244954,36.141 C54.4164954,36.159 54.4134954,36.175 54.4064954,36.193 C54.0504954,37.009 54.1244954,37.916 54.5464954,38.65 C54.5524954,38.66 54.5584954,38.671 54.5644954,38.681 C54.6184954,38.772 54.6754954,38.859 54.7404954,38.944 C54.7754954,38.991 54.8144954,39.034 54.8524954,39.079 C54.9014954,39.135 54.9484954,39.193 55.0024954,39.245 C55.1044954,39.346 55.2134954,39.441 55.3334954,39.525 L55.6884954,39.776 C55.8864954,39.918 56.0004954,40.138 56.0004954,40.381 C56.0004954,40.624 55.8864954,40.843 55.6884954,40.983 L55.3324954,41.233 C55.3294954,41.235 55.3274954,41.238 55.3234954,41.241 C55.1934954,41.334 55.0744954,41.439 54.9634954,41.553 C54.9194954,41.598 54.8814954,41.649 54.8404954,41.697 C54.7804954,41.768 54.7214954,41.84 54.6694954,41.917 C54.6494954,41.946 54.6234954,41.971 54.6044954,42.001 L41.4694954,42.001 C41.5504954,41.891 41.6204954,41.774 41.6844954,41.654 C41.6874954,41.649 41.6904954,41.645 41.6934954,41.64 C41.7814954,41.469 41.8454954,41.287 41.8964954,41.101 C41.9094954,41.055 41.9194954,41.01 41.9294954,40.964 C41.9714954,40.775 41.9994954,40.582 42.0004954,40.385 L42.0004954,40.383 L42.0004954,40.383 L42.0004954,40.383 C42.0004954,40.255 41.9724954,40.133 41.9554954,40.008 C41.9424954,39.916 41.9444954,39.821 41.9214954,39.731 C41.8484954,39.433 41.7094954,39.16 41.5434954,38.904 C41.3554954,38.615 41.1284954,38.35 40.8394954,38.146 L40.4854954,37.896 C40.1944954,37.691 40.0924954,37.308 40.2414954,36.986 L40.4244954,36.593 C40.5134954,36.401 40.5744954,36.2 40.6164954,35.996 C40.6294954,35.935 40.6294954,35.874 40.6374954,35.813 C40.6574954,35.669 40.6724954,35.526 40.6694954,35.382 C40.6674954,35.307 40.6554954,35.233 40.6474954,35.158 C40.6334954,35.029 40.6164954,34.901 40.5844954,34.775 C40.5634954,34.693 40.5354954,34.615 40.5074954,34.535 C40.4834954,34.469 40.4714954,34.4 40.4434954,34.335 C40.4264954,34.296 40.3964954,34.267 40.3774954,34.23 C40.3524954,34.179 40.3394954,34.124 40.3114954,34.074 C40.2584954,33.983 40.1864954,33.908 40.1234954,33.824 C40.0714954,33.754 40.0254954,33.681 39.9674954,33.616 C39.8464954,33.481 39.7084954,33.366 39.5644954,33.259 C39.5214954,33.227 39.4894954,33.182 39.4444954,33.153 C39.5484954,32.849 39.6364954,32.515 39.6664954,32.186 L39.6664954,32.186 L39.6664954,32.186 L39.6664954,32.186 L39.6664954,32.186 L39.6664954,32.186 L39.6664954,32.186 L39.6664954,32.186 L39.6664954,32.186 L39.6664954,32.186 L39.6664954,32.186 Z M34.1224954,21.677 C34.7574954,20.775 36.0084954,20.559 36.9094954,21.194 C37.3434954,21.5 37.6334954,21.96 37.7244954,22.488 C37.8154954,23.017 37.6984954,23.548 37.3924954,23.981 L33.4914954,29.517 C33.4914954,29.517 33.4904954,29.517 33.4904954,29.518 L31.6314954,32.155 C31.3254954,32.59 30.8664954,32.88 30.3384954,32.971 C29.8114954,33.059 29.2794954,32.945 28.8454954,32.638 C28.8434954,32.637 28.8424954,32.635 28.8404954,32.634 C28.6974954,32.533 28.5774954,32.41 28.4684954,32.28 C28.4404954,32.247 28.4144954,32.212 28.3884954,32.177 C28.2934954,32.046 28.2114954,31.907 28.1504954,31.758 C28.1464954,31.748 28.1404954,31.74 28.1364954,31.73 C28.0754954,31.572 28.0414954,31.405 28.0214954,31.235 C28.0164954,31.192 28.0144954,31.149 28.0114954,31.106 C28.0024954,30.936 28.0074954,30.763 28.0434954,30.59 C28.0984954,30.328 28.2034954,30.077 28.3614954,29.853 L34.1224954,21.677 L34.1224954,21.677 L34.1224954,21.677 L34.1224954,21.677 L34.1224954,21.677 L34.1224954,21.677 L34.1224954,21.677 L34.1224954,21.677 L34.1224954,21.677 L34.1224954,21.677 L34.1224954,21.677 Z M19.4274954,41.232 L19.0734954,40.983 C18.8744954,40.843 18.7604954,40.624 18.7604954,40.38 C18.7604954,40.136 18.8744954,39.917 19.0734954,39.776 L19.4254954,39.528 C20.5084954,38.767 20.8904954,37.342 20.3344954,36.138 L20.1534954,35.748 C20.0504954,35.527 20.0624954,35.279 20.1834954,35.068 C20.3054954,34.858 20.5134954,34.724 20.7564954,34.703 L21.1854954,34.664 C22.5034954,34.546 23.5464954,33.503 23.6664954,32.185 L23.7054954,31.754 C23.7264954,31.512 23.8604954,31.304 24.0704954,31.182 C24.2794954,31.061 24.5284954,31.05 24.7484954,31.152 L25.1424954,31.335 C25.4284954,31.467 25.7314954,31.544 26.0394954,31.568 C26.0424954,31.589 26.0514954,31.61 26.0554954,31.631 C26.0584954,31.649 26.0564954,31.667 26.0594954,31.684 C26.0794954,31.798 26.1214954,31.903 26.1504954,32.014 C26.1844954,32.143 26.2104954,32.274 26.2564954,32.4 C26.3114954,32.548 26.3874954,32.685 26.4584954,32.825 C26.5064954,32.919 26.5434954,33.016 26.5994954,33.106 C26.6974954,33.265 26.8174954,33.409 26.9374954,33.553 C26.9884954,33.614 27.0284954,33.681 27.0824954,33.739 C27.2664954,33.934 27.4694954,34.114 27.6934954,34.271 C27.8904954,34.41 28.1004954,34.524 28.3144954,34.624 C28.3824954,34.655 28.4514954,34.68 28.5214954,34.707 C28.6744954,34.768 28.8294954,34.82 28.9884954,34.861 C29.0684954,34.882 29.1474954,34.902 29.2294954,34.917 C29.3984954,34.95 29.5694954,34.969 29.7424954,34.98 C29.8074954,34.984 29.8704954,34.994 29.9354954,34.995 C29.9524954,34.995 29.9684954,34.999 29.9854954,34.999 C30.2164954,34.999 30.4484954,34.979 30.6804954,34.939 C31.7354954,34.755 32.6544954,34.175 33.2674954,33.305 L34.7384954,31.217 C34.9054954,31.328 35.0344954,31.508 35.0564954,31.754 L35.0954954,32.183 C35.2154954,33.501 36.2584954,34.544 37.5754954,34.663 L38.0054954,34.702 C38.0994954,34.71 38.1814954,34.749 38.2614954,34.788 C38.3004954,34.808 38.3394954,34.826 38.3744954,34.853 C38.4284954,34.893 38.4724954,34.945 38.5134954,34.999 C38.5394954,35.033 38.5684954,35.064 38.5884954,35.103 C38.6364954,35.197 38.6704954,35.296 38.6754954,35.398 C38.6754954,35.402 38.6744954,35.408 38.6744954,35.412 C38.6784954,35.524 38.6574954,35.638 38.6084954,35.744 L38.4254954,36.137 C38.2164954,36.588 38.1404954,37.07 38.1834954,37.537 C38.1844954,37.543 38.1864954,37.549 38.1864954,37.556 C38.2014954,37.705 38.2264954,37.852 38.2654954,37.997 C38.4264954,38.599 38.7924954,39.145 39.3324954,39.525 L39.5754954,39.696 L39.6864954,39.774 C39.8864954,39.919 40.0004954,40.138 40.0004954,40.381 C40.0004954,40.503 39.9724954,40.618 39.9184954,40.721 C39.9034954,40.751 39.8714954,40.769 39.8514954,40.797 C39.8034954,40.865 39.7574954,40.934 39.6864954,40.984 L39.6734954,40.993 L39.3314954,41.233 C39.1944954,41.33 39.0684954,41.442 38.9524954,41.562 C38.9164954,41.599 38.8874954,41.641 38.8544954,41.679 C38.7784954,41.767 38.7054954,41.857 38.6404954,41.954 C38.6294954,41.97 38.6144954,41.984 38.6044954,42 L20.1564954,42 C19.9654954,41.7 19.7184954,41.437 19.4274954,41.232 L19.4274954,41.232 L19.4274954,41.232 L19.4274954,41.232 L19.4274954,41.232 L19.4274954,41.232 L19.4274954,41.232 L19.4274954,41.232 L19.4274954,41.232 L19.4274954,41.232 L19.4274954,41.232 Z M58.0144954,59.785 C56.7114954,60.407 55.6334954,61.447 54.9774954,62.714 C54.2144954,64.188 54.3094954,66.047 55.2344954,67.583 C55.3024954,67.697 55.2744954,67.797 55.2374954,67.86 C55.2014954,67.923 55.1314954,68 54.9984954,68 L32.2104954,68 C32.0784954,68 32.0074954,67.924 31.9714954,67.86 C31.9354954,67.797 31.9064954,67.697 31.9854954,67.565 C32.9004954,66.046 32.9954954,64.187 32.2324954,62.712 C31.5774954,61.445 30.4984954,60.405 29.1964954,59.784 C21.4414954,56.082 16.5294954,52.219 16.0014954,44.414 C15.9914954,44.265 16.0634954,44.164 16.1064954,44.117 C16.1564954,44.063 16.2434954,44 16.3744954,44 L19.5204954,44 L39.2424954,44 L55.2424954,44 L55.3054954,44 L68.6944954,44 L70.8374954,44 C70.9674954,44 71.0544954,44.063 71.1054954,44.117 C71.1484954,44.164 71.2204954,44.264 71.2094954,44.414 C70.6804954,52.219 65.7684954,56.082 58.0144954,59.785 L58.0144954,59.785 L58.0144954,59.785 L58.0144954,59.785 L58.0144954,59.785 L58.0144954,59.785 L58.0144954,59.785 L58.0144954,59.785 L58.0144954,59.785 L58.0144954,59.785 Z M51.0004954,61 L42.2934954,61 C41.7414954,61 41.2934954,61.447 41.2934954,62 C41.2934954,62.553 41.7414954,63 42.2934954,63 L51.0004954,63 C51.5524954,63 52.0004954,62.553 52.0004954,62 C52.0004954,61.447 51.5524954,61 51.0004954,61 L51.0004954,61 L51.0004954,61 L51.0004954,61 L51.0004954,61 L51.0004954,61 L51.0004954,61 L51.0004954,61 L51.0004954,61 L51.0004954,61 Z M36.0004954,63 L39.3864954,63 C39.9384954,63 40.3864954,62.553 40.3864954,62 C40.3864954,61.447 39.9384954,61 39.3864954,61 L36.0004954,61 C35.4484954,61 35.0004954,61.447 35.0004954,62 C35.0004954,62.553 35.4474954,63 36.0004954,63 L36.0004954,63 L36.0004954,63 L36.0004954,63 L36.0004954,63 L36.0004954,63 L36.0004954,63 L36.0004954,63 L36.0004954,63 L36.0004954,63 Z M51.0004954,64 L36.0004954,64 C35.4484954,64 35.0004954,64.447 35.0004954,65 C35.0004954,65.553 35.4484954,66 36.0004954,66 L51.0004954,66 C51.5524954,66 52.0004954,65.553 52.0004954,65 C52.0004954,64.447 51.5524954,64 51.0004954,64 L51.0004954,64 L51.0004954,64 L51.0004954,64 L51.0004954,64 L51.0004954,64 L51.0004954,64 L51.0004954,64 L51.0004954,64 L51.0004954,64 Z M53.8794954,27.293 C54.0744954,27.488 54.3304954,27.586 54.5864954,27.586 C54.8424954,27.586 55.0984954,27.488 55.2934954,27.293 C55.6844954,26.902 55.6844954,26.27 55.2934954,25.879 L52.4644954,23.051 C52.0734954,22.66 51.4414954,22.66 51.0504954,23.051 C50.6594954,23.442 50.6594954,24.074 51.0504954,24.465 L53.8794954,27.293 L53.8794954,27.293 L53.8794954,27.293 L53.8794954,27.293 L53.8794954,27.293 L53.8794954,27.293 L53.8794954,27.293 L53.8794954,27.293 L53.8794954,27.293 L53.8794954,27.293 Z M59.5354954,32.949 C59.7304954,33.144 59.9864954,33.242 60.2424954,33.242 C60.4984954,33.242 60.7544954,33.144 60.9494954,32.949 C61.3404954,32.558 61.3394954,31.926 60.9494954,31.535 L58.1204954,28.707 C57.7294954,28.316 57.0974954,28.316 56.7064954,28.707 C56.3154954,29.098 56.3154954,29.73 56.7064954,30.121 L59.5354954,32.949 L59.5354954,32.949 L59.5354954,32.949 L59.5354954,32.949 L59.5354954,32.949 L59.5354954,32.949 L59.5354954,32.949 L59.5354954,32.949 L59.5354954,32.949 L59.5354954,32.949 Z M57.4144954,27.586 C57.6704954,27.586 57.9264954,27.488 58.1214954,27.293 L60.9504954,24.465 C61.3404954,24.074 61.3414954,23.442 60.9504954,23.051 C60.5594954,22.66 59.9274954,22.66 59.5364954,23.051 L56.7074954,25.879 C56.3164954,26.27 56.3164954,26.902 56.7074954,27.293 C56.9024954,27.488 57.1584954,27.586 57.4144954,27.586 L57.4144954,27.586 L57.4144954,27.586 L57.4144954,27.586 L57.4144954,27.586 L57.4144954,27.586 L57.4144954,27.586 L57.4144954,27.586 L57.4144954,27.586 L57.4144954,27.586 Z M63.0004954,36 C63.0004954,36.553 63.4474954,37 64.0004954,37 L68.0004954,37 C68.5534954,37 69.0004954,36.553 69.0004954,36 C69.0004954,35.447 68.5534954,35 68.0004954,35 L64.0004954,35 C63.4474954,35 63.0004954,35.447 63.0004954,36 L63.0004954,36 L63.0004954,36 L63.0004954,36 L63.0004954,36 L63.0004954,36 L63.0004954,36 L63.0004954,36 L63.0004954,36 L63.0004954,36 Z M44.5004954,36.5 C44.7564954,36.5 45.0124954,36.402 45.2074954,36.207 L46.7074954,34.707 C47.0984954,34.316 47.0984954,33.684 46.7074954,33.293 C46.3164954,32.902 45.6844954,32.902 45.2934954,33.293 L43.7934954,34.793 C43.4024954,35.184 43.4024954,35.816 43.7934954,36.207 C43.9884954,36.402 44.2444954,36.5 44.5004954,36.5 L44.5004954,36.5 L44.5004954,36.5 L44.5004954,36.5 L44.5004954,36.5 L44.5004954,36.5 L44.5004954,36.5 L44.5004954,36.5 L44.5004954,36.5 L44.5004954,36.5 Z M49.2934954,38.707 C49.4884954,38.902 49.7444954,39 50.0004954,39 C50.2564954,39 50.5124954,38.902 50.7074954,38.707 C51.0984954,38.316 51.0984954,37.684 50.7074954,37.293 L49.7074954,36.293 C49.3164954,35.902 48.6844954,35.902 48.2934954,36.293 C47.9024954,36.684 47.9024954,37.316 48.2934954,37.707 L49.2934954,38.707 L49.2934954,38.707 L49.2934954,38.707 L49.2934954,38.707 L49.2934954,38.707 L49.2934954,38.707 L49.2934954,38.707 L49.2934954,38.707 L49.2934954,38.707 L49.2934954,38.707 Z M45.2934954,38.293 L44.2934954,39.293 C43.9024954,39.684 43.9024954,40.316 44.2934954,40.707 C44.4884954,40.902 44.7444954,41 45.0004954,41 C45.2564954,41 45.5124954,40.902 45.7074954,40.707 L46.7074954,39.707 C47.0984954,39.316 47.0984954,38.684 46.7074954,38.293 C46.3164954,37.902 45.6834954,37.902 45.2934954,38.293 L45.2934954,38.293 L45.2934954,38.293 L45.2934954,38.293 L45.2934954,38.293 L45.2934954,38.293 L45.2934954,38.293 L45.2934954,38.293 L45.2934954,38.293 L45.2934954,38.293 Z" transform="translate(-14 -18)"/>
</svg>
