<svg xmlns="http://www.w3.org/2000/svg" width="60" height="54" viewBox="0 0 60 54">
  <path fill="#000000" fill-rule="evenodd" d="M49.869,52 C50.421,52 50.869,51.553 50.869,51 C50.869,47.141 47.729,44 43.869,44 C43.317,44 42.869,44.447 42.869,45 C42.869,45.553 43.317,46 43.869,46 C46.626,46 48.869,48.243 48.869,51 C48.869,51.552 49.316,52 49.869,52 L49.869,52 L49.869,52 L49.869,52 L49.869,52 L49.869,52 L49.869,52 L49.869,52 L49.869,52 L49.869,52 Z M52.869,52 C53.421,52 53.869,51.553 53.869,51 C53.869,45.486 49.383,41 43.869,41 C41.663,41 39.869,42.794 39.869,45 C39.869,45.553 40.317,46 40.869,46 C41.421,46 41.869,45.553 41.869,45 C41.869,43.897 42.766,43 43.869,43 C48.28,43 51.869,46.589 51.869,51 C51.869,51.552 52.316,52 52.869,52 L52.869,52 L52.869,52 L52.869,52 L52.869,52 L52.869,52 L52.869,52 L52.869,52 L52.869,52 L52.869,52 Z M43.869,47 C43.317,47 42.869,47.447 42.869,48 C42.869,48.553 43.317,49 43.869,49 C44.972,49 45.869,49.897 45.869,51 C45.869,51.553 46.317,52 46.869,52 C47.421,52 47.869,51.553 47.869,51 C47.869,48.794 46.074,47 43.869,47 L43.869,47 L43.869,47 L43.869,47 L43.869,47 L43.869,47 L43.869,47 L43.869,47 L43.869,47 L43.869,47 Z M55.869,52 C56.421,52 56.869,51.553 56.869,51 C56.869,43.832 51.037,38 43.869,38 L41.869,38 C39.112,38 36.869,40.243 36.869,43 C36.869,43.553 37.317,44 37.869,44 C38.421,44 38.869,43.553 38.869,43 C38.869,41.346 40.215,40 41.869,40 L43.869,40 C49.934,40 54.869,44.935 54.869,51 C54.869,51.552 55.316,52 55.869,52 L55.869,52 L55.869,52 L55.869,52 L55.869,52 L55.869,52 L55.869,52 L55.869,52 L55.869,52 L55.869,52 Z M29.869,29 C30.421,29 30.869,28.553 30.869,28 L35.869,28 C37.496,28 38.93,27.207 39.843,26 L67.869,26 C69.523,26 70.869,24.654 70.869,23 C70.869,21.346 69.523,20 67.869,20 L39.843,20 C38.929,18.793 37.495,18 35.869,18 L30.869,18 C30.869,17.447 30.421,17 29.869,17 C29.317,17 28.869,17.447 28.869,18 L28.869,28 C28.869,28.552 29.316,29 29.869,29 L29.869,29 L29.869,29 L29.869,29 L29.869,29 L29.869,29 L29.869,29 L29.869,29 L29.869,29 L29.869,29 Z M67.869,22 C68.42,22 68.869,22.448 68.869,23 C68.869,23.552 68.42,24 67.869,24 L40.768,24 C40.834,23.677 40.869,23.342 40.869,23 C40.869,22.658 40.834,22.323 40.768,22 L67.869,22 L67.869,22 L67.869,22 L67.869,22 L67.869,22 L67.869,22 L67.869,22 L67.869,22 L67.869,22 L67.869,22 Z M35.869,20 C36.873,20 37.759,20.5 38.303,21.26 L38.446,21.505 C38.58,21.734 38.679,21.97 38.749,22.209 C38.754,22.226 38.761,22.243 38.765,22.261 C38.832,22.504 38.868,22.751 38.868,23 C38.868,23.249 38.832,23.496 38.765,23.739 C38.76,23.757 38.754,23.773 38.749,23.791 C38.679,24.03 38.58,24.266 38.446,24.495 L38.303,24.74 C37.758,25.5 36.873,26 35.869,26 L30.869,26 L30.869,24.002 C31.595,24.003 32.817,24.004 34.869,24.004 C35.421,24.004 35.869,23.557 35.869,23.004 C35.869,22.451 35.421,22.004 34.869,22.004 C32.813,22.004 31.592,22.003 30.869,22.002 L30.869,20 L35.869,20 L35.869,20 L35.869,20 L35.869,20 L35.869,20 L35.869,20 L35.869,20 L35.869,20 L35.869,20 L35.869,20 Z M26.869,29 C27.421,29 27.869,28.553 27.869,28 L27.869,18 C27.869,17.447 27.421,17 26.869,17 C26.317,17 25.869,17.447 25.869,18 L25.869,28 C25.869,28.552 26.316,29 26.869,29 L26.869,29 L26.869,29 L26.869,29 L26.869,29 L26.869,29 L26.869,29 L26.869,29 L26.869,29 L26.869,29 Z M26.869,42 C27.421,42 27.869,41.553 27.869,41 L27.869,31 C27.869,30.447 27.421,30 26.869,30 C26.317,30 25.869,30.447 25.869,31 L25.869,41 C25.869,41.552 26.316,42 26.869,42 L26.869,42 L26.869,42 L26.869,42 L26.869,42 L26.869,42 L26.869,42 L26.869,42 L26.869,42 L26.869,42 Z M23.869,31 C23.317,31 22.869,31.447 22.869,32 L22.869,42 C22.869,42.553 23.317,43 23.869,43 C24.421,43 24.869,42.553 24.869,42 L24.869,32 C24.869,31.447 24.421,31 23.869,31 L23.869,31 L23.869,31 L23.869,31 L23.869,31 L23.869,31 L23.869,31 L23.869,31 L23.869,31 L23.869,31 Z M18.869,25 C18.317,25 17.869,25.447 17.869,26 C17.869,26.553 18.317,27 18.869,27 L22.869,27 L22.869,29.289 C22.869,29.842 23.317,30.289 23.869,30.289 C24.421,30.289 24.869,29.842 24.869,29.289 L24.869,18 C24.869,17.447 24.421,17 23.869,17 C23.317,17 22.869,17.447 22.869,18 L22.869,19 L18.869,19 C18.317,19 17.869,19.447 17.869,20 C17.869,20.553 18.317,21 18.869,21 L22.869,21 L22.869,22 L18.869,22 C18.317,22 17.869,22.447 17.869,23 C17.869,23.553 18.317,24 18.869,24 L22.869,24 L22.869,25 L18.869,25 L18.869,25 L18.869,25 L18.869,25 L18.869,25 L18.869,25 L18.869,25 L18.869,25 L18.869,25 L18.869,25 Z M64.818,63 C64.31,57.402 59.597,53 53.869,53 L46.869,53 C46.317,53 45.869,53.447 45.869,54 C45.869,54.553 46.317,55 46.869,55 L53.869,55 C58.493,55 62.311,58.507 62.81,63 L61.8,63 C61.305,59.06 57.941,56 53.869,56 L47.869,56 C47.317,56 46.869,56.447 46.869,57 C46.869,57.553 47.317,58 47.869,58 L53.869,58 C56.836,58 59.3,60.167 59.779,63 L58.768,63 C58.303,60.721 56.284,59 53.869,59 L48.869,59 C48.317,59 47.869,59.447 47.869,60 C47.869,60.553 48.317,61 48.869,61 L53.869,61 C55.171,61 56.271,61.839 56.685,63 L54.869,63 C54.869,62.447 54.421,62 53.869,62 L48.869,62 C48.317,62 47.869,62.447 47.869,63 L46.852,63 C46.501,48.283 38.434,43 30.869,43 L29.869,43 C24.355,43 19.869,47.486 19.869,53 L19.869,58 C19.869,58.553 20.317,59 20.869,59 C21.421,59 21.869,58.553 21.869,58 L21.869,53 C21.869,48.589 25.458,45 29.869,45 L30.869,45 C40.818,45 44.594,54.116 44.854,63 L43.855,63 C43.575,52.331 38.765,46 30.868,46 C27.008,46 23.868,49.141 23.868,53 L23.868,54 C23.868,54.553 24.316,55 24.868,55 C25.42,55 25.868,54.553 25.868,54 L25.868,53 C25.868,50.243 28.111,48 30.868,48 C40.16,48 41.694,57.8 41.852,63 L40.854,63 C40.567,51.464 35.304,49 30.868,49 C29.214,49 27.868,50.346 27.868,52 C27.868,52.553 28.316,53 28.868,53 C29.42,53 29.868,52.553 29.868,52 C29.868,51.448 30.317,51 30.868,51 C36.039,51 38.65,54.936 38.849,63 L37.868,63 C37.868,62.447 37.42,62 36.868,62 L31.868,62 C31.316,62 30.868,62.447 30.868,63 L29.052,63 C29.466,61.839 30.566,61 31.868,61 L36.868,61 C37.42,61 37.868,60.553 37.868,60 C37.868,59.447 37.42,59 36.868,59 L31.868,59 C29.454,59 27.434,60.721 26.969,63 L25.958,63 C26.436,60.167 28.9,58 31.868,58 L35.868,58 C36.42,58 36.868,57.553 36.868,57 C36.868,56.447 36.42,56 35.868,56 L31.868,56 C27.796,56 24.432,59.06 23.937,63 L22.927,63 C23.427,58.507 27.244,55 31.868,55 L33.868,55 C34.42,55 34.868,54.553 34.868,54 C34.868,53.447 34.42,53 33.868,53 L31.868,53 C26.14,53 21.426,57.402 20.919,63 L14,63 L17.045,67.567 C18.478,69.716 20.876,71 23.46,71 L64.278,71 C66.861,71 69.259,69.717 70.693,67.567 L73.738,63 L64.818,63 L64.818,63 L64.818,63 L64.818,63 L64.818,63 L64.818,63 L64.818,63 L64.818,63 L64.818,63 L64.818,63 Z M69.028,66.458 C67.967,68.05 66.191,69 64.278,69 L23.459,69 C21.545,69 19.77,68.05 18.709,66.458 L17.737,65 L41.868,65 L46.868,65 L70,65 L69.028,66.458 L69.028,66.458 L69.028,66.458 L69.028,66.458 L69.028,66.458 L69.028,66.458 L69.028,66.458 L69.028,66.458 L69.028,66.458 L69.028,66.458 Z" transform="translate(-14 -17)"/>
</svg>
